<?xml version="1.0" encoding="UTF-8" standalone="no"?>
<!-- Created with Inkscape (http://www.inkscape.org/) -->
<svg
   xmlns:dc="http://purl.org/dc/elements/1.1/"
   xmlns:cc="http://web.resource.org/cc/"
   xmlns:rdf="http://www.w3.org/1999/02/22-rdf-syntax-ns#"
   xmlns:svg="http://www.w3.org/2000/svg"
   xmlns="http://www.w3.org/2000/svg"
   xmlns:sodipodi="http://sodipodi.sourceforge.net/DTD/sodipodi-0.dtd"
   xmlns:inkscape="http://www.inkscape.org/namespaces/inkscape"
   width="827.58612"
   height="699.4754"
   id="svg2"
   sodipodi:version="0.32"
   inkscape:version="0.45.1"
   sodipodi:docbase="/Users/johnolsen/Desktop"
   sodipodi:docname="SnEptUne_Calligraphy_Lotus.svg"
   inkscape:output_extension="org.inkscape.output.svg.inkscape"
   version="1.0">
  <defs
     id="defs4" />
  <sodipodi:namedview
     id="base"
     pagecolor="#ffffff"
     bordercolor="#666666"
     borderopacity="1.0"
     gridtolerance="10000"
     guidetolerance="10"
     objecttolerance="10"
     inkscape:pageopacity="0.0"
     inkscape:pageshadow="2"
     inkscape:zoom="0.7"
     inkscape:cx="188.13203"
     inkscape:cy="655.21282"
     inkscape:document-units="px"
     inkscape:current-layer="layer1"
     inkscape:window-width="1152"
     inkscape:window-height="787"
     inkscape:window-x="0"
     inkscape:window-y="22" />
  <metadata
     id="metadata7">
    <rdf:RDF>
      <cc:Work
         rdf:about="">
        <dc:format>image/svg+xml</dc:format>
        <dc:type
           rdf:resource="http://purl.org/dc/dcmitype/StillImage" />
      </cc:Work>
    </rdf:RDF>
  </metadata>
  <g
     inkscape:label="Layer 1"
     inkscape:groupmode="layer"
     id="layer1"
     transform="translate(102.91968,-80.452852)">
    <path
       style="fill:#000000;fill-opacity:1;fill-rule:nonzero;stroke:none;stroke-width:1px;stroke-linecap:butt;stroke-linejoin:miter;stroke-opacity:1"
       id="path2637"
       d="M 302.60643,494.5098 C 299.43078,493.63895 296.25338,494.61276 293.07396,495.14362 C 286.88718,496.39536 280.85748,498.24169 274.7683,499.8788 C 268.29499,501.69544 262.70022,505.26084 257.03786,508.77582 C 252.67231,511.9743 249.44713,515.98763 246.45033,520.37472 C 242.97226,526.08727 241.06073,532.5387 239.303,538.94146 C 236.92935,546.94649 235.77713,555.24686 234.41673,563.47104 C 233.25011,571.93824 231.798,580.34682 230.433,588.77349 C 229.5875,596.07875 228.02152,603.24175 226.15314,610.344 C 224.58447,615.8904 222.70357,621.34671 221.12945,626.90182 C 219.73682,629.8662 218.47411,632.92351 217.16344,635.84299 C 216.59012,637.66103 215.6785,639.3665 214.9422,641.04981 C 216.76106,636.57281 214.29128,634.87881 209.6559,633.52175 C 209.42183,634.10047 212.05978,632.31952 212.7726,631.96302 C 216.59692,628.49162 220.35602,624.96226 223.81804,621.13561 C 228.74879,615.57951 234.43572,610.74998 240.19624,606.08833 C 245.49913,601.8051 251.14886,597.92937 256.70367,594.00056 C 262.93661,589.87691 269.10932,585.66139 274.8386,580.84339 C 282.37687,574.23879 288.46686,566.45135 294.46755,558.49868 C 299.50552,550.70739 303.32343,542.31606 306.73954,533.72119 C 309.69092,526.60423 312.27834,519.35285 314.84076,512.08942 C 318.07945,508.8978 317.38201,505.55792 318.21229,502.11137 C 318.68545,500.14725 320.25809,499.7807 321.03147,501.64712 L 321.03147,501.64712 C 322.63394,505.51447 323.87154,509.60273 325.53465,513.60145 C 325.80765,522.76738 323.15606,531.15835 319.06596,539.3265 C 314.50128,548.23742 310.07751,557.31698 304.19628,565.44983 C 298.16569,574.32523 291.02914,582.49703 283.52795,590.15778 C 277.77232,596.06328 272.0715,602.07005 264.99027,606.41814 C 259.51936,609.83364 253.97374,613.16526 248.76527,617.00249 C 243.43101,621.40638 238.29319,625.92759 233.55695,630.96443 C 228.91556,634.94191 224.54147,639.35396 218.85257,641.93911 C 216.30379,643.38533 213.74893,645.10891 210.85077,645.66425 C 204.37407,644.05226 202.9563,641.51872 205.08104,635.80508 C 205.86318,634.46683 206.71865,632.94198 207.5763,631.53568 C 208.70268,628.69139 210.05533,625.81131 210.95892,622.81435 C 213.48786,617.98338 215.58739,613.02676 217.24967,607.82734 C 219.18612,601.02204 221.10561,594.22339 222.48845,587.28005 C 224.15793,578.95914 225.5359,570.588 226.93476,562.21271 C 228.38041,553.75444 230.15729,545.37204 231.81557,536.95696 C 233.86205,529.82737 235.65952,522.6431 239.09509,516.01435 C 242.55979,510.32502 245.90604,504.69751 251.84674,501.24239 C 257.94815,497.09887 264.27827,493.47691 270.88771,490.19114 C 276.96593,487.1375 283.1513,484.39621 289.64416,482.31166 C 293.66717,480.95658 297.72799,479.74366 301.7972,478.55533 C 312.64032,475.38884 313.50025,497.49718 302.60643,494.5098 z " />
    <path
       style="fill:#000000;fill-opacity:1;fill-rule:nonzero;stroke:none;stroke-width:1px;stroke-linecap:butt;stroke-linejoin:miter;stroke-opacity:1"
       id="path2639"
       d="M 322.81503,486.73766 C 325.38357,486.84058 327.94611,487.78404 330.4292,488.56388 C 335.16413,489.78956 339.918,490.76232 344.75056,491.53006 C 350.57541,493.09327 356.62789,493.35409 362.597,493.57349 C 367.96781,493.75043 373.19207,493.18747 378.45024,492.27467 C 384.64422,491.20749 390.23732,488.35475 395.87692,485.71858 C 401.22652,482.90513 405.86706,479.26868 410.36563,475.29406 C 412.92321,473.20046 414.26961,470.22545 415.82865,467.62551 C 416.92111,466.51712 416.3093,465.07255 416.529,463.9056 C 416.50484,463.40366 416.3276,463.07815 416.20784,462.58609 C 416.02021,462.21827 416.4874,463.36314 416.62719,463.75167 C 417.15122,464.06072 417.79892,464.07958 418.38479,464.24353 C 414.68478,464.07182 410.91477,465.13068 407.28497,465.91837 C 400.75801,467.725 394.16041,469.24054 387.60969,470.9849 C 381.19504,472.5021 374.78529,474.00457 368.34348,475.39317 C 361.68493,477.84729 355.13078,478.65545 348.49824,478.17293 C 341.50622,479.81495 334.37793,480.67097 327.25801,481.5162 C 325.25179,481.75436 324.93366,478.91478 326.9399,478.67682 L 326.9399,478.67682 C 333.95069,477.84525 340.97005,477.00494 347.85508,475.38912 C 353.45805,472.05418 359.75491,469.64315 366.64887,468.51719 C 373.05042,466.89062 379.52245,465.65442 385.99205,464.27742 C 392.4612,462.77428 398.79098,460.94229 404.94834,458.43318 C 408.99245,456.88245 413.05864,455.39234 417.14906,454.01843 C 420.36643,453.54947 422.39811,452.84012 425.19146,455.16132 C 426.00977,456.68474 427.64177,457.97639 427.57437,459.86017 C 427.71826,461.47812 428.25062,463.06165 428.01002,464.75889 C 427.40592,467.42077 426.87143,470.09796 425.68702,472.58417 C 422.88588,476.25788 420.379,480.10093 416.22228,482.45833 C 410.87333,486.22406 405.38583,489.84844 399.42205,492.58362 C 393.21426,495.91923 386.96966,499.28459 380.13433,501.16048 C 374.16456,501.92854 368.22622,502.2968 362.21538,501.51206 C 355.91589,501.02923 349.56527,500.49125 343.24789,499.79321 C 338.37056,498.68976 333.493,497.64301 328.56314,496.78827 C 325.5626,496.14691 322.50869,495.79595 319.97683,493.92343 C 315.58448,490.67494 317.35632,486.51893 322.81503,486.73766 z " />
    <path
       style="fill:#000000;fill-opacity:1;fill-rule:nonzero;stroke:none;stroke-width:1px;stroke-linecap:butt;stroke-linejoin:miter;stroke-opacity:1"
       id="path2647"
       d="M 439.63773,456.38885 C 445.50628,457.04906 450.50382,455.51523 456.49663,455.66903 C 466.61057,456.86447 476.69909,458.10545 486.78362,459.47853 C 498.68356,461.97623 509.85527,466.80732 521.34213,470.65345 C 531.55848,475.17217 541.98564,479.18487 552.09142,483.94539 C 558.71322,486.28899 564.6719,490.01028 570.90796,493.17287 C 574.68233,494.35252 577.55886,496.95342 580.52911,499.42801 C 584.60576,503.28825 585.78575,506.71914 585.11506,512.45453 C 581.8847,518.87072 578.90144,517.95 572.41484,515.86957 C 570.49106,515.25256 571.21113,515.54946 570.67836,513.60067 L 570.67836,513.60067 C 570.35915,512.43303 568.63728,503.30495 566.6756,508.16697 C 566.75256,508.89106 567.87853,516.00141 567.34908,512.37117 C 565.51972,510.52174 563.80678,508.46335 561.85841,506.69274 C 556.92567,502.46784 551.71674,498.6403 546.50895,494.7506 C 537.05941,489.4017 527.53218,484.23537 517.33232,480.39984 C 506.97506,475.2713 496.05471,471.41735 484.83673,468.63511 C 475.40976,465.82917 465.98043,464.68655 456.10837,465.23016 C 450.40854,465.02383 445.59701,463.03199 440.06865,464.32771 C 434.59509,465.61059 434.05108,455.76035 439.63773,456.38885 z " />
    <path
       style="fill:#000000;fill-opacity:1;fill-rule:nonzero;stroke:none;stroke-width:1px;stroke-linecap:butt;stroke-linejoin:miter;stroke-opacity:1"
       id="path2679"
       d="M 327.02255,460.75943 C 328.33527,458.45944 330.25718,456.54934 331.72497,454.26831 C 333.4752,451.82422 334.5777,449.05508 335.69078,446.29122 C 336.57297,443.64939 337.16649,440.93977 337.85025,438.23453 C 338.48687,435.39332 338.18594,432.56173 337.88993,429.70446 C 337.12071,425.82915 335.60954,422.17104 334.30413,418.4558 C 332.06466,413.73024 330.15326,408.89551 327.51606,404.36359 C 325.10809,399.30141 321.37822,395.03075 317.82189,390.74391 C 314.10386,386.27109 309.32743,382.91236 305.09818,378.99412 C 301.16063,375.63389 297.12187,372.40732 292.91791,369.39024 C 290.23207,367.33522 287.27663,365.68016 284.45682,363.83636 C 282.87014,363.12506 281.50249,362.0972 280.01146,361.22076 C 279.2556,361.0396 278.51864,360.88472 277.76839,360.71583 C 277.35329,358.73035 276.82012,359.62213 275.38417,359.2446 C 273.98763,360.18323 272.94114,361.48861 271.97119,362.84534 C 270.54909,365.30766 269.4962,367.94418 268.45328,370.57151 C 267.11126,373.85412 266.66702,377.39516 266.24725,380.89499 C 265.94192,385.10579 265.78686,389.38043 265.9025,393.60732 C 266.17219,398.86856 267.01745,404.09953 268.01836,409.27083 C 269.30982,414.85674 271.13441,420.28492 272.84235,425.75071 C 275.05369,431.06737 277.27754,436.33756 279.98232,441.4282 C 282.86187,446.00724 285.27117,450.83707 288.57307,455.14204 C 292.14424,459.81869 296.28093,464.23618 300.87469,467.92154 C 304.16059,470.37033 306.49256,473.55802 310.05419,475.60145 C 310.93038,476.10415 310.21873,477.3436 309.34286,476.84033 L 309.34286,476.84033 C 305.71752,474.75723 301.52585,473.81402 298.42625,470.84841 C 293.68856,466.72539 288.75838,462.82833 284.88157,457.81785 C 281.69885,453.18818 278.58987,448.44796 276.40278,443.25112 C 273.81052,437.94235 271.16908,432.58112 269.44957,426.92041 C 267.37923,421.41989 266.00475,415.68875 264.97808,409.90688 C 263.7749,404.54975 262.66322,399.20506 262.45833,393.69679 C 262.34914,389.26481 262.2845,384.89327 262.98289,380.49144 C 263.57181,376.75796 264.10503,373.05368 265.24178,369.42791 C 266.24858,366.56524 267.26051,363.69406 268.76936,361.04521 C 269.79941,358.90447 270.57741,356.75325 272.55648,355.20677 C 274.27486,353.53827 275.96349,351.93184 277.95467,350.60827 C 280.08402,350.65081 282.12218,350.61251 284.06772,351.66916 C 286.36531,352.52899 288.47987,353.5026 290.2889,355.20793 C 293.25755,357.32649 296.0226,359.68558 298.79515,362.06048 C 302.77997,365.60091 306.72703,369.17571 310.60055,372.83894 C 315.21843,376.82539 319.33293,381.39288 323.50221,385.84817 C 327.57728,390.41138 331.10749,395.36161 334.53983,400.41365 C 337.17041,405.24239 339.9324,410.05802 341.89225,415.2036 C 343.96832,419.31934 345.77928,423.58919 346.83185,428.08995 C 347.5412,432.09211 347.98895,436.02518 347.04832,440.06673 C 346.38755,443.56258 345.60061,446.95889 343.81969,450.09214 C 342.09453,453.13885 340.24371,456.12811 337.96731,458.8283 C 336.21344,460.8786 334.79679,463.35286 332.83509,465.08852 C 328.99695,468.4844 324.48223,465.21028 327.02255,460.75943 z " />
    <path
       style="fill:#000000;fill-opacity:1;fill-rule:nonzero;stroke:none;stroke-width:1px;stroke-linecap:butt;stroke-linejoin:miter;stroke-opacity:1"
       id="path2687"
       d="M 376.42459,459.73765 C 378.56159,459.63136 380.62979,458.85859 382.70947,458.1284 C 388.35882,455.59255 392.41251,450.71928 396.2465,446.03089 C 402.07781,438.04365 406.09374,429.01933 409.74142,419.8824 C 413.37809,410.50679 416.14794,400.83505 418.72176,391.12488 C 420.7701,383.20469 422.20349,375.15561 423.47442,367.08158 C 424.46671,360.74296 424.93923,354.32673 424.77443,347.91383 C 424.77575,343.10905 423.96937,338.40355 423.17782,333.68774 C 422.41072,330.0898 421.3277,326.56325 420.19633,323.0772 C 419.76186,320.97338 418.59258,319.34063 417.36393,317.66837 C 416.99841,317.05276 416.40911,316.60131 415.93169,316.06778 C 418.01439,314.66714 413.29843,316.5386 412.69406,316.8262 C 408.30972,319.88409 404.85855,323.92267 401.63674,328.14902 C 396.72986,335.11245 393.09598,342.79253 389.40012,350.43325 C 384.66706,360.08098 380.5109,369.9851 376.7108,380.03266 C 372.66856,390.95516 369.25837,402.10056 366.35583,413.37607 C 363.73578,424.0992 361.71096,434.97395 360.64506,445.96337 C 359.73672,450.45234 359.96514,454.9871 360.19485,459.51875 C 360.24599,460.52761 358.81878,460.59963 358.76809,459.59075 L 358.76809,459.59075 C 358.53624,454.97641 358.43754,450.3645 358.40204,445.74393 C 359.49969,434.61765 361.41493,423.63215 364.7796,412.9402 C 368.09398,401.73479 371.21127,390.45968 375.37461,379.52726 C 379.19086,369.4382 383.13638,359.38571 388.06628,349.77808 C 391.88967,342.11168 395.54848,334.36376 399.41693,326.72605 C 402.14237,321.64891 405.15403,316.75036 409.22887,312.63274 C 412.14578,309.38934 414.951,306.00617 419.76203,306.8096 C 422.36282,308.13024 424.38946,309.51867 426.07064,312.01254 C 427.44254,314.73855 428.62755,317.51465 429.35375,320.50258 C 430.18223,324.42523 430.97601,328.35778 431.56487,332.32674 C 432.27453,337.51889 432.70881,342.75219 432.45693,348.00051 C 432.14674,354.82667 431.59243,361.64041 430.1566,368.33876 C 428.37883,376.49199 426.00716,384.49575 423.58884,392.47901 C 420.73106,402.28975 417.738,412.03935 414.0658,421.58469 C 410.36201,431.1248 406.38661,440.61436 401.2286,449.47144 C 397.48199,455.84969 393.27862,461.75363 387.1106,466.0262 C 384.4265,467.7487 381.59333,469.74399 378.4992,470.29849 C 371.00817,471.64095 368.82362,460.11571 376.42459,459.73765 z " />
    <path
       style="fill:#000000;fill-opacity:1;fill-rule:nonzero;stroke:none;stroke-width:1px;stroke-linecap:butt;stroke-linejoin:miter;stroke-opacity:1"
       id="path2689"
       d="M 406.05417,454.72741 C 408.78373,453.5346 411.33549,451.63873 413.74932,449.84904 C 419.49034,445.25379 424.59774,439.93197 429.59872,434.55872 C 434.8984,428.58021 439.64194,422.15861 444.06483,415.51464 C 448.02536,409.21525 451.94883,402.91906 455.63447,396.45452 C 459.0458,390.72759 462.32243,385.00903 464.40527,378.61988 C 464.6992,377.61343 464.99313,376.60697 465.28706,375.60051 C 465.57023,374.63087 466.94169,375.03155 466.6583,376.00114 L 466.6583,376.00114 C 466.36001,377.02171 466.06172,378.04228 465.76343,379.06285 C 463.66303,385.49968 461.89933,392.15409 458.84313,398.18573 C 455.41062,404.90787 451.61112,411.52706 447.14,417.61365 C 442.47678,424.27984 437.96403,431.07947 432.60587,437.22066 C 427.78253,442.94356 422.54049,448.28906 417.68709,453.98428 C 415.37488,456.76924 413.18754,459.6786 410.53816,462.16073 C 406.05855,466.35756 400.42937,457.18543 406.05417,454.72741 z " />
    <path
       style="fill:#000000;fill-opacity:1;fill-rule:nonzero;stroke:none;stroke-width:1px;stroke-linecap:butt;stroke-linejoin:miter;stroke-opacity:1"
       id="path2691"
       d="M 473.35707,327.05589 C 473.03485,325.71961 473.75309,323.71208 474.14153,322.15753 C 474.7332,319.62173 474.77561,317.0534 474.64046,314.47248 C 474.80387,312.35605 474.43024,310.2617 474.19358,308.17248 C 474.29101,307.47141 473.6425,306.22308 473.56809,305.95987 C 475.4137,307.10803 473.5871,305.86122 473.3949,306.85851 C 469.64907,309.73192 467.12756,313.81307 464.72427,317.80334 C 460.19556,325.20459 455.35838,332.40955 450.53534,339.62024 C 445.19062,347.4885 439.7454,355.28629 434.4907,363.21548 C 429.24047,371.10097 424.29058,379.17848 419.68833,387.45784 C 419.19755,388.34076 417.94888,387.6466 418.43973,386.76372 L 418.43973,386.76372 C 423.0606,378.45228 428.02877,370.34249 433.29989,362.42631 C 438.55583,354.4955 444.00171,346.6957 449.3479,338.826 C 454.15839,331.63408 458.9832,324.44803 463.50051,317.06628 C 466.08189,312.78037 468.08908,308.17595 470.90802,304.04083 C 473.12227,301.73645 474.78715,300.67283 477.63038,302.78093 C 478.50386,304.40156 479.38189,305.78463 479.17508,307.82929 C 479.15641,310.10355 479.0489,312.37297 479.04998,314.64833 C 478.65005,317.34523 478.36021,320.03585 478.15782,322.75329 C 478.06198,324.50943 478.20955,326.72429 477.35716,328.06432 C 475.79157,330.52557 474.04086,329.8916 473.35707,327.05589 z " />
    <path
       style="fill:#000000;fill-opacity:1;fill-rule:nonzero;stroke:none;stroke-width:1px;stroke-linecap:butt;stroke-linejoin:miter;stroke-opacity:1"
       id="path2693"
       d="M 442.24736,433.78273 C 443.94181,430.0068 447.04594,427.39348 449.79895,424.42565 C 456.22289,417.60877 460.94737,409.48583 466.66778,402.10583 C 474.07161,393.22155 481.10364,384.05438 487.81285,374.63793 C 494.91612,364.20862 502.4605,353.91062 507.92385,342.5058 C 512.28978,333.48569 515.38119,323.99867 517.98061,314.35118 C 520.33759,306.66985 522.05117,298.81526 523.87428,290.995 C 524.89789,285.15563 525.70143,279.2996 525.9674,273.37783 C 526.48733,270.23987 525.55163,267.32058 524.7761,264.43676 C 524.35609,263.4409 523.40669,263.11295 522.63724,262.51129 C 522.53702,262.17235 521.24425,262.80864 520.6383,262.93798 C 513.89664,265.18157 508.98381,269.04362 504.48599,274.4416 C 500.28355,280.01813 502.37373,277.10647 498.23789,283.19265 C 497.67013,284.02815 496.48842,283.22487 497.05643,282.38954 L 497.05643,282.38954 C 501.24648,276.22758 499.12828,279.1764 503.38858,273.527 C 508.14405,267.82219 511.58311,261.2726 516.60214,255.86695 C 520.56999,252.98554 524.44233,252.03269 528.81787,254.63957 C 531.09184,256.8615 533.00461,259.12479 533.56438,262.39471 C 533.79245,266.46097 533.58889,270.3078 532.56641,274.28885 C 531.2077,280.23473 529.66067,286.12729 527.85302,291.96122 C 525.86937,299.81714 523.56514,307.58871 521.57899,315.44243 C 518.34069,325.05228 514.44895,334.45434 509.59311,343.36817 C 503.40704,354.51224 498.00182,366.10488 490.83222,376.70075 C 484.4528,386.43967 477.54075,395.7784 470.47742,405.02943 C 464.82993,412.46309 458.54389,419.43346 453.73809,427.47416 C 451.50987,430.94185 449.63574,434.57694 446.25333,437.09393 C 443.30502,439.28789 440.74273,437.13564 442.24736,433.78273 z " />
    <path
       style="fill:#000000;fill-opacity:1;fill-rule:nonzero;stroke:none;stroke-width:1px;stroke-linecap:butt;stroke-linejoin:miter;stroke-opacity:1"
       id="path2699"
       d="M 299.674,481.87452 C 296.38851,480.80935 293.10822,479.78522 289.77655,478.8498 C 280.87619,476.21384 272.2077,472.93337 263.58928,469.48822 C 251.34007,465.6013 239.93175,459.92624 229.21262,452.9003 C 217.87362,445.09088 208.63329,434.89709 199.94405,424.33385 C 192.81628,415.60196 186.59947,406.20323 180.58675,396.68748 C 177.26598,391.0967 175.04185,384.99728 172.54825,379.02388 C 171.28497,376.38899 170.19734,373.67277 169.02304,370.99578 C 168.36877,369.74781 167.71562,368.55208 167.00663,367.33409 C 166.20907,363.29831 168.59261,362.06995 172.23256,362.17883 C 175.71433,363.55589 178.94932,365.46174 182.49516,366.66813 C 189.05713,369.63909 195.98897,371.71858 202.82702,373.95245 C 212.49413,378.02545 221.64372,383.25484 230.33482,389.1135 C 239.19571,394.39432 247.34016,400.61464 255.02282,407.46864 C 258.81131,411.6375 262.07746,416.17149 265.79243,420.42609 C 266.45683,421.187 265.38055,422.12663 264.71627,421.36561 L 264.71627,421.36561 C 261.02947,417.14191 256.96846,413.66691 252.47336,410.32108 C 244.95552,403.58905 237.0294,397.30087 228.87679,391.35688 C 220.18376,385.91501 211.62649,380.09141 201.8379,376.74561 C 195.0865,374.16128 188.04533,372.57111 180.98917,371.03465 C 177.80699,369.92264 174.47987,369.02915 171.10775,368.80682 C 172.07667,368.10426 174.54128,367.42674 173.76735,365.11457 C 174.1052,366.13002 174.38392,367.62827 174.8813,368.74382 C 175.74417,371.67813 176.49749,374.66412 176.73484,377.73172 C 177.97911,383.88785 180.18173,389.77518 182.79651,395.48533 C 187.48441,405.65938 194.01139,414.74021 201.04737,423.42638 C 209.64379,433.87943 218.7804,443.97262 229.99601,451.70568 C 240.58862,458.65532 251.87199,464.38233 264.0651,467.99685 C 272.88678,470.12533 281.82296,472.2214 290.90011,472.79215 C 293.84156,473.06645 296.91994,473.64265 299.82581,473.04265 C 305.94277,471.77964 305.61555,483.80079 299.674,481.87452 z " />
    <path
       style="fill:#000000;fill-opacity:1;fill-rule:nonzero;stroke:none;stroke-width:1px;stroke-linecap:butt;stroke-linejoin:miter;stroke-opacity:1"
       id="path2725"
       d="M 291.62863,481.387 C 289.34554,482.43795 286.8019,482.77568 284.29981,483.07446 C 278.15391,483.64015 272.00567,484.16687 265.82726,484.21861 C 255.64621,484.22927 245.46448,484.01993 235.28084,484.06711 C 222.37223,484.24515 209.53604,483.28375 196.66372,482.48491 C 182.34625,481.45817 168.17525,479.40189 154.14189,476.41759 C 140.07292,473.452 126.41516,469.0662 112.81902,464.46459 C 101.56953,460.74915 90.716626,456.03338 80.017883,450.98152 C 73.11474,447.42669 66.026016,444.14641 59.30199,440.24427 C 55.477766,438.27429 51.961026,435.71471 48.504046,433.16685 C 45.966545,431.27459 44.150887,428.91768 42.612961,426.21417 C 41.439923,424.07817 40.946877,421.73148 40.406342,419.39815 C 39.983805,417.82675 39.989577,416.25802 40.042388,414.65564 C 40.1404,412.08532 41.484044,410.60775 43.07583,408.77971 C 45.713565,407.43002 48.384608,407.8275 51.192173,408.00908 C 55.333823,407.81623 59.480369,408.09679 63.627112,408.09959 C 70.178332,408.55491 76.725361,408.8897 83.25079,409.65455 C 90.927485,410.54257 98.583776,411.57973 106.25888,412.48606 C 114.26961,413.28098 122.00139,415.53851 129.71203,417.73232 C 137.84236,420.23423 145.96866,422.75944 154.14444,425.11229 C 162.08919,427.36403 169.37471,431.16494 177.03718,434.15244 C 177.97832,434.51938 177.45924,435.85046 176.51815,435.48339 L 176.51815,435.48339 C 168.84746,432.49144 160.88697,431.4151 152.96533,429.19713 C 144.79504,426.83163 136.63414,424.48634 128.47232,422.09691 C 120.95416,419.96513 113.32942,418.3257 105.6127,417.0777 C 98.049163,415.83821 90.443715,415.14142 82.7983,414.62529 C 76.470465,414.21817 70.141306,413.62511 63.805961,414.25479 C 59.815086,414.49662 55.913984,415.23057 51.977274,415.87967 C 51.637011,415.98175 47.251039,417.37784 49.566872,416.95596 C 49.810783,416.5563 50.86633,415.37573 50.688268,415.15419 C 50.715021,415.37831 51.034704,416.79737 50.966263,417.48298 C 51.192844,418.65703 51.31115,419.83891 51.985953,420.85976 C 52.981235,422.21804 53.906278,423.59886 55.276683,424.62399 C 58.362885,427.11259 61.565856,429.47092 64.703834,431.90577 C 70.815026,436.33053 76.826558,440.85662 83.401015,444.59284 C 93.348971,450.47461 103.56798,455.95346 114.31472,460.24575 C 127.56422,465.16164 141.19101,469.11384 155.02922,471.99837 C 168.88554,474.61329 182.89745,476.56553 196.97951,477.39042 C 209.68364,478.17696 222.42871,477.9861 235.13942,477.38896 C 245.21529,477.00834 255.28985,476.35811 265.31869,475.34586 C 271.32071,474.69615 277.3328,474.28234 283.32929,473.60895 C 285.78844,473.41555 288.32176,473.14374 290.67062,473.95568 C 295.6781,475.68665 296.44143,479.17158 291.62863,481.387 z " />
    <path
       style="fill:#000000;fill-opacity:1;fill-rule:nonzero;stroke:none;stroke-width:1px;stroke-linecap:butt;stroke-linejoin:miter;stroke-opacity:1"
       id="path2731"
       d="M 322.90442,377.6999 C 323.89525,374.92619 325.6933,372.58797 327.62132,370.38947 C 330.97507,365.47764 334.34277,360.5634 337.85611,355.76166 C 341.34713,350.65695 344.98852,345.68071 349.08891,341.04791 C 352.37083,337.27397 356.32997,334.77601 361.13766,333.5295 C 366.21823,332.63531 370.50549,334.87776 374.3667,337.93637 C 379.20661,340.93995 381.11938,345.94702 384.08722,350.41271 C 384.49145,351.10301 384.89567,351.79331 385.29989,352.48361 C 385.81033,353.35531 384.57636,354.07709 384.06677,353.20489 L 384.06677,353.20489 C 383.67688,352.53756 383.28699,351.87024 382.8971,351.20291 C 380.20454,347.14367 375.76179,344.34068 372.21045,341.04125 C 368.97938,339.13286 365.75109,337.36235 361.89219,337.48706 C 357.74126,338.3011 354.10873,339.78315 351.05356,342.92241 C 346.70369,347.13795 342.87522,351.85027 339.49425,356.87745 C 336.35163,361.84614 333.15183,366.77555 330.45572,372.00881 C 329.74918,374.244 328.76422,376.39877 328.49437,378.71618 C 328.02969,382.7067 321.55292,381.48324 322.90442,377.6999 z " />
    <path
       style="fill:#000000;fill-opacity:1;fill-rule:nonzero;stroke:none;stroke-width:1px;stroke-linecap:butt;stroke-linejoin:miter;stroke-opacity:1"
       id="path2737"
       d="M 335.7125,357.07408 C 335.10991,356.13964 334.01698,355.41962 333.1404,354.66434 C 331.7389,353.09224 329.94095,351.98378 328.25041,350.77014 C 326.44702,349.73568 324.43996,349.21987 322.44205,348.71482 C 320.18334,348.28495 317.90702,348.27726 315.62485,348.2268 C 313.46243,348.27829 311.41438,348.90836 309.35832,349.49319 C 307.47975,350.16091 306.00455,351.49571 304.44463,352.67765 C 302.74419,354.20921 301.40062,356.06026 300.11922,357.93611 C 298.90652,359.67686 298.10615,361.63077 297.17752,363.53594 C 297.03216,363.82987 296.88681,364.12381 296.74145,364.41775 C 296.29368,365.32323 295.18439,364.94139 295.39075,363.95255 L 295.39075,363.95255 C 295.45859,363.62748 295.52642,363.30241 295.59426,362.97735 C 296.13911,360.7453 296.68051,358.46027 297.87864,356.47636 C 299.26001,354.40443 300.64926,352.32419 302.40488,350.52376 C 304.19921,348.79915 305.90546,347.12909 308.39675,346.44829 C 310.7331,345.75084 313.10365,345.33635 315.54817,345.19739 C 318.06781,345.15019 320.5809,345.26384 323.04276,345.86257 C 325.41674,346.37818 327.73438,346.91521 329.76402,348.34026 C 331.62244,349.57226 333.48717,350.78007 335.26411,352.11849 C 336.37768,353.08339 337.48074,354.00288 338.38466,355.16168 C 339.81377,356.99376 336.97175,359.02682 335.7125,357.07408 z " />
    <path
       style="fill:#000000;fill-opacity:1;fill-rule:nonzero;stroke:none;stroke-width:1px;stroke-linecap:butt;stroke-linejoin:miter;stroke-opacity:1"
       id="path2741"
       d="M 249.15358,400.26477 C 249.24963,398.74113 248.78431,397.23259 248.48911,395.74559 C 247.48134,391.89575 246.63792,388.00561 245.71062,384.11817 C 244.72688,378.70005 243.26861,373.38113 242.18925,367.9748 C 241.41142,362.56848 240.74584,357.17767 240.53551,351.71019 C 240.32698,346.75436 241.42263,341.90429 242.24668,337.05415 C 242.84764,333.58173 243.36727,330.10144 244.19727,326.68403 C 244.69183,323.98834 246.17456,322.53761 248.33067,321.12698 C 251.62461,319.90643 253.73115,321.3092 256.1942,323.4207 C 259.42997,326.92746 262.69446,330.42782 265.95883,333.92078 C 269.81621,337.89323 272.98516,342.42361 276.0196,347.03284 C 276.57506,347.87656 275.38175,348.6621 274.82636,347.81833 L 274.82636,347.81833 C 271.83662,343.27623 268.71744,338.80963 264.91508,334.89617 C 261.75068,331.5098 258.6148,328.04151 254.72825,325.46148 C 253.10839,324.8068 251.76356,323.8253 249.94108,324.16023 C 248.74677,325.21743 247.49748,325.94235 246.91776,327.60096 C 245.69145,330.79804 244.48476,333.98798 243.7845,337.35537 C 242.73991,342.0485 242.36246,346.86015 242.36499,351.66245 C 242.43652,356.99624 242.8009,362.41173 244.12426,367.58868 C 245.18609,372.91264 246.22282,378.32458 248.23743,383.37542 C 249.55304,387.10336 251.20931,390.5957 253.10435,394.04618 C 253.95797,395.66223 254.75689,397.29471 255.48007,398.97334 C 257.28655,403.16651 248.86633,404.82148 249.15358,400.26477 z " />
    <path
       style="fill:#000000;fill-opacity:1;fill-rule:nonzero;stroke:none;stroke-width:1px;stroke-linecap:butt;stroke-linejoin:miter;stroke-opacity:1"
       id="path2749"
       d="M 201.20028,372.36478 C 200.44712,370.76399 200.20069,368.95788 199.81392,367.2417 C 198.94974,363.56724 198.13988,359.90163 197.55021,356.16696 C 196.6912,350.70682 195.75998,345.25284 194.52793,339.86318 C 193.63964,335.12019 192.3656,330.44597 191.67498,325.66979 C 190.9829,321.91389 190.3665,318.14752 189.81123,314.36911 C 189.40824,312.26793 189.04773,310.19418 188.80792,308.07233 C 188.90375,305.01957 190.26302,304.33488 192.88852,303.4104 C 195.13963,304.15453 196.60893,306.02096 198.1923,307.69342 C 200.8466,310.46611 203.18061,313.51277 205.5904,316.49384 C 208.9381,320.18855 211.84205,324.18614 214.68648,328.27683 C 217.79898,332.79724 220.74311,337.42454 223.7284,342.02702 C 226.61876,346.12326 229.02012,350.48274 231.444,354.85607 C 233.15119,359.13807 235.07636,363.31213 236.62251,367.66322 C 238.06549,371.52987 239.17578,375.50255 240.38316,379.44478 C 240.89795,382.53698 241.3623,385.62858 241.96694,388.70347 C 242.16184,389.69464 240.90969,390.02912 240.58672,389.07199 L 240.58672,389.07199 C 239.5901,386.11846 238.49233,383.22121 237.26853,380.3475 C 236.16267,376.42088 234.92713,372.53281 233.77545,368.61804 C 232.37209,364.37923 231.23975,359.99581 228.89321,356.15193 C 226.83335,351.69717 224.33241,347.44138 221.83469,343.22063 C 218.99435,338.5809 216.01893,334.01979 212.7898,329.63884 C 209.87267,325.70479 206.97887,321.76208 203.78119,318.05937 C 201.27777,315.35751 198.7015,312.72408 195.66247,310.61548 C 195.20343,310.31253 192.54018,308.22425 192.93726,309.22986 C 193.09088,309.12207 195.61072,307.5454 194.78886,308.06148 C 194.69403,309.97277 194.48173,311.90122 194.67704,313.82092 C 194.98131,317.56361 195.22194,321.29986 195.70059,325.0278 C 196.52219,329.72846 197.01347,334.49104 198.04336,339.15991 C 198.96641,344.52922 199.98642,349.91985 201.6992,355.09908 C 202.95743,358.54019 204.19178,361.9972 205.66076,365.34922 C 206.34761,366.97618 207.14702,368.58173 207.57898,370.30313 C 208.73269,374.90075 203.2183,376.65392 201.20028,372.36478 z " />
    <path
       style="fill:#000000;fill-opacity:1;fill-rule:nonzero;stroke:none;stroke-width:1px;stroke-linecap:butt;stroke-linejoin:miter;stroke-opacity:1"
       id="path2751"
       d="M 200.17024,372.97985 C 198.84031,371.17953 197.97938,369.02405 196.99637,366.99331 C 194.99286,362.47329 192.62511,358.14849 190.59886,353.62977 C 188.04315,348.53889 185.00245,343.71166 182.67279,338.51074 C 180.14148,333.05826 178.15747,327.38859 176.41899,321.64212 C 174.88191,316.37971 172.84839,311.31102 171.11245,306.11927 C 169.30131,301.8788 168.33045,297.35761 167.16404,292.91739 C 166.38467,289.0254 165.95773,285.08597 165.33589,281.16778 C 165.08061,278.30144 164.26887,275.59877 164.08525,272.73451 C 163.79648,270.41309 163.58909,268.10208 163.40281,265.76812 C 163.1456,264.27512 163.16393,262.75336 163.05927,261.25855 C 163.02587,259.13046 163.90865,257.16406 164.55205,255.20262 C 164.97263,253.81658 165.3694,252.48968 165.78243,251.15263 C 166.15806,249.32192 167.4944,248.44879 168.77005,247.27143 C 170.90688,245.90757 173.17641,246.17989 175.56715,246.52889 C 178.72862,247.86225 181.35782,250.04948 184.02761,252.16082 C 187.93989,255.16997 191.54248,258.55246 195.30104,261.74505 C 199.6427,266.03913 203.81616,270.524 207.87855,275.08743 C 212.17386,279.74491 215.88614,284.90142 219.69688,289.96553 C 223.13902,294.79829 225.62704,300.1695 227.72406,305.69211 C 229.01846,308.3693 230.15612,311.11552 231.28278,313.86581 C 231.66571,314.80057 230.3436,315.34208 229.9608,314.40727 L 229.9608,314.40727 C 228.84481,311.68202 227.71771,308.96089 226.43517,306.30822 C 223.51439,301.32047 220.80175,296.2383 217.67522,291.37181 C 214.28292,286.0733 210.22776,281.51235 205.73958,277.11186 C 201.47308,272.87059 197.49015,268.35498 192.90547,264.44102 C 189.43877,261.21498 185.61538,258.41502 181.53037,256.01447 C 179.06082,254.87212 176.60883,253.59257 173.87074,253.23715 C 173.37493,253.05927 173.06484,252.72944 172.68325,252.81111 C 172.52265,253.0249 172.26457,253.23543 172.13889,253.53571 C 171.6192,254.75772 171.05838,255.95643 170.59362,257.24993 C 170.20954,258.49489 169.76997,259.65477 169.87054,261.01572 C 169.8769,262.54311 170.04556,264.10394 169.79839,265.63548 C 169.7615,267.86839 169.66691,270.08432 169.77604,272.3148 C 170.02807,275.13673 169.6439,277.90665 169.9009,280.73622 C 170.05164,284.54869 170.42243,288.35204 171.16769,292.09752 C 172.02689,296.49168 173.00842,300.8455 174.11841,305.18912 C 175.61661,310.44857 176.81422,315.77496 178.47493,320.99161 C 180.32594,326.59336 181.84659,332.33893 184.46034,337.65587 C 187.03432,342.70381 189.40506,347.84378 192.28161,352.73337 C 194.8584,356.86405 197.12644,361.19412 200.18611,364.99012 C 201.59934,366.68297 203.11143,368.32848 204.40663,370.06711 C 206.57838,372.98242 202.33026,375.90386 200.17024,372.97985 z " />
    <path
       style="fill:#000000;fill-opacity:1;fill-rule:nonzero;stroke:none;stroke-width:1px;stroke-linecap:butt;stroke-linejoin:miter;stroke-opacity:1"
       id="path2755"
       d="M 235.46598,338.84295 C 234.37717,336.37769 233.82055,333.73148 233.15256,331.14484 C 231.71522,326.43301 230.25964,321.71588 228.46866,317.1239 C 226.26974,311.6568 224.91719,305.93187 223.7807,300.16724 C 222.76141,294.35261 221.71393,288.5432 220.66557,282.73377 C 219.79928,278.33592 219.22609,273.89407 218.70679,269.44807 C 218.42709,265.80056 218.13056,262.15347 217.96058,258.49794 C 217.68507,255.83444 217.60345,253.13608 217.61633,250.46129 C 217.49032,248.43669 218.12724,246.52438 218.55203,244.57678 C 219.52444,242.19307 220.6284,241.41591 223.04227,240.89189 C 226.33107,241.42282 229.12261,243.28343 231.86413,245.07668 C 235.98538,248.30882 240.23998,251.35708 244.29682,254.67181 C 248.74605,258.3158 252.41758,262.73588 255.90137,267.27801 C 258.17061,270.16872 260.35876,273.08624 262.385,276.14945 C 262.94231,276.99196 261.84336,277.7789 261.22356,276.98124 L 261.22356,276.98124 C 258.98408,274.09907 256.86823,271.13527 254.76776,268.14735 C 251.35175,263.69221 247.75575,259.35294 243.39284,255.77799 C 239.42118,252.53177 235.4039,249.20008 230.75364,246.96717 C 228.35093,245.83058 226.12046,244.23796 223.38004,244.35104 C 222.90279,244.72703 221.48127,244.22161 221.7831,245.60915 C 221.22553,247.26599 220.71441,248.89456 220.57974,250.65505 C 220.30385,253.25713 220.1903,255.88079 219.95513,258.49224 C 219.84232,262.10832 219.69945,265.70355 220.19713,269.30327 C 220.63876,273.72194 221.2062,278.12042 222.07144,282.48007 C 223.11844,288.28199 224.16481,294.08385 225.18232,299.89105 C 226.29895,305.56039 227.58038,311.22565 229.8549,316.56211 C 231.77665,321.13081 234.1202,325.50666 235.99122,330.09979 C 237.07292,332.33836 238.19088,334.59146 239.18334,336.87071 C 240.37128,339.5989 236.66815,341.56491 235.46598,338.84295 z " />
    <path
       style="fill:#000000;fill-opacity:1;fill-rule:nonzero;stroke:none;stroke-width:1px;stroke-linecap:butt;stroke-linejoin:miter;stroke-opacity:1"
       id="path2763"
       d="M 238.36451,337.0393 C 238.76331,334.91558 238.74463,332.73002 238.78152,330.5711 C 238.93632,327.0287 238.71032,323.47155 238.56424,319.92396 C 238.38967,316.25252 238.41931,312.57784 238.46703,308.90425 C 238.56909,306.23246 238.23024,303.61997 237.83366,300.99643 C 237.62162,298.81734 237.52827,296.64898 237.35051,294.50517 C 236.96307,292.63408 237.3491,290.84384 237.68367,289.01536 C 237.81859,287.45034 238.90294,286.52243 239.74039,285.34331 C 241.1047,283.63725 242.54934,283.92292 244.43409,283.75418 C 247.44153,284.24745 249.84601,285.9225 252.217,287.71695 C 255.26807,290.23172 257.85531,293.16696 260.10167,296.40671 C 262.69695,300.4484 264.85486,304.7475 267.06677,309.00502 C 269.2033,313.26511 271.22983,317.58004 273.23831,321.90178 C 275.02674,325.4639 276.33575,329.1841 277.6461,332.92658 C 277.80452,333.42236 277.96294,333.91814 278.12136,334.41392 C 278.42883,335.37614 277.06791,335.81092 276.76055,334.84867 L 276.76055,334.84867 C 276.60442,334.35987 276.44829,333.87108 276.29216,333.38228 C 275.00187,329.69461 273.54083,326.07358 271.9428,322.50384 C 269.94321,318.20114 267.92559,313.90524 265.79907,309.66362 C 263.61487,305.4594 261.48453,301.21402 258.92702,297.21973 C 256.79976,294.1405 254.41521,291.18778 251.261,289.11037 C 249.04743,287.95373 246.90817,286.53225 244.30419,286.3933 C 243.42823,286.6498 242.49214,286.40783 241.86284,287.23227 C 241.2934,288.01891 240.59305,288.68928 240.19535,289.58713 C 240.03381,291.18569 239.83152,292.78377 239.79961,294.39744 C 239.87079,296.51938 240.02162,298.67326 240.16922,300.83427 C 240.11575,303.53018 240.02968,306.23021 239.89542,308.9272 C 239.84788,312.57475 239.81829,316.22338 239.99174,319.8688 C 240.13723,323.40276 240.21663,326.9596 240.82911,330.44426 C 241.12064,332.52119 241.3179,334.66943 242.12672,336.61371 C 243.15503,339.08561 237.87041,339.67057 238.36451,337.0393 z " />
    <path
       style="fill:#000000;fill-opacity:1;fill-rule:nonzero;stroke:none;stroke-width:1px;stroke-linecap:butt;stroke-linejoin:miter;stroke-opacity:1"
       id="path2765"
       d="M 259.38796,297.57279 C 259.70938,295.73238 259.82903,293.84784 259.95655,291.98349 C 259.9635,289.00499 260.63656,286.1304 261.34349,283.25763 C 261.96283,280.0095 263.08921,276.88834 264.30961,273.8254 C 265.64515,270.91223 267.78101,268.9073 270.23636,266.97236 C 272.35318,265.32258 274.79155,264.24458 277.14816,263.00167 C 279.72931,261.61949 282.28315,261.55585 285.06952,261.73145 C 288.76084,262.87044 291.36832,265.53439 294.10863,268.07844 C 297.69978,271.45457 299.40199,276.13025 301.09482,280.64086 C 301.44975,281.5866 300.11072,282.08816 299.75702,281.14196 L 299.75702,281.14196 C 298.13844,276.81205 295.83152,273.0804 292.47626,269.84611 C 290.03326,267.88395 287.59147,265.86527 284.45121,265.18389 C 282.29895,265.03477 280.53287,264.84889 278.54545,266.06574 C 276.29188,267.01843 274.14504,268.16909 272.09213,269.51382 C 270.12998,271.10615 268.27362,272.77973 267.23341,275.15787 C 265.98635,277.98981 264.82049,280.81204 264.29496,283.88808 C 263.92082,286.58935 263.49841,289.30721 263.53747,292.04502 C 263.61833,293.74612 263.59745,295.53145 264.17496,297.14301 C 265.32146,300.34233 258.80327,300.92066 259.38796,297.57279 z " />
    <path
       style="fill:#000000;fill-opacity:1;fill-rule:nonzero;stroke:none;stroke-width:1px;stroke-linecap:butt;stroke-linejoin:miter;stroke-opacity:1"
       id="path2767"
       d="M 297.85964,308.77739 C 298.16769,307.16048 298.2548,305.54708 298.50831,303.91902 C 298.77528,300.58471 299.19985,297.31114 299.73904,294.00478 C 300.52315,290.23426 301.48552,286.51584 302.41868,282.78113 C 303.00256,279.55447 304.00692,276.43303 305.12929,273.36556 C 305.94381,270.90506 307.11106,268.64948 308.5065,266.48129 C 309.63567,264.59561 311.35319,263.26312 312.99431,261.89748 C 314.69933,260.23064 316.53161,259.73509 318.81052,259.42672 C 321.87725,259.33799 324.46028,260.50858 327.11038,261.77752 C 330.31171,264.26207 332.92603,267.34787 335.14449,270.72955 C 338.07659,274.8036 339.80296,279.51774 341.98691,283.98942 C 344.59867,288.48577 346.34387,293.41195 348.08086,298.29335 C 349.49685,302.81584 350.16286,307.49245 351.55562,312.01852 C 351.85272,312.984 350.48733,313.40416 350.19024,312.43868 L 350.19024,312.43868 C 348.80895,307.94981 346.71457,303.79758 344.88486,299.47993 C 343.04985,294.73983 340.94276,290.14169 338.89845,285.49319 C 336.81476,281.20042 334.41428,277.04643 331.91808,272.9836 C 329.85988,270.14151 327.78373,267.29223 324.84078,265.30755 C 323.05127,264.00414 321.36767,262.66215 319.06291,262.63718 C 317.585,263.00303 316.01224,263.1327 314.70617,264.10038 C 313.30215,265.34539 311.83801,266.49333 310.64964,267.98399 C 309.36551,269.97222 307.9574,271.91623 307.09648,274.15027 C 305.92447,277.12332 304.73882,280.07129 303.86291,283.15096 C 302.88293,286.81459 301.82005,290.49098 301.377,294.26744 C 300.98001,297.51483 300.52906,300.76655 300.51342,304.04862 C 300.61646,305.63059 300.53645,307.21718 300.89067,308.77739 C 301.36519,310.86746 297.45853,310.88278 297.85964,308.77739 z " />
    <path
       style="fill:#000000;fill-opacity:1;fill-rule:nonzero;stroke:none;stroke-width:1px;stroke-linecap:butt;stroke-linejoin:miter;stroke-opacity:1"
       id="path2769"
       d="M 333.30543,245.85866 C 335.4735,243.44631 336.7584,240.38693 338.37337,237.58542 C 340.7868,233.49981 343.53347,229.62782 346.33029,225.79939 C 348.58313,222.59042 351.10928,219.5989 353.67165,216.63778 C 355.09483,214.58601 356.95143,213.07276 358.88292,211.55874 C 361.20195,210.23897 362.43779,211.04537 364.61567,211.98774 C 366.47651,213.71852 368.26053,215.54326 370.02146,217.34807 C 372.44391,220.89229 374.84244,224.42143 376.77996,228.26527 C 378.87393,232.34692 380.96896,236.38123 382.52671,240.7099 C 384.01808,244.39614 385.21432,248.18524 386.3361,251.99852 C 387.28975,254.50226 387.19772,257.21106 387.20423,259.78254 C 387.20679,260.79268 386.26169,260.99162 385.80884,260.08866 L 385.80884,260.08866 C 384.69948,257.87661 383.49224,255.54843 382.83583,253.04717 C 381.64655,249.33208 380.51962,245.59823 379.35752,241.87738 C 377.80153,237.72938 376.30627,233.5124 374.25388,229.58835 C 372.30317,226.00597 370.53971,222.2245 367.74081,219.21114 C 366.3972,217.37861 365.18565,215.50692 363.14085,214.37665 C 362.11226,214.05028 361.23856,213.28476 360.03295,213.64729 C 358.13909,214.76934 356.25637,215.89915 354.75665,217.59649 C 352.20601,220.50952 349.70761,223.46579 347.4838,226.64213 C 344.71708,230.42888 341.99941,234.25834 339.61098,238.29894 C 337.98082,241.12611 336.20331,243.93324 335.33987,247.09861 C 334.89652,248.72393 332.17929,247.11167 333.30543,245.85866 z " />
    <path
       style="fill:#000000;fill-opacity:1;fill-rule:nonzero;stroke:none;stroke-width:1px;stroke-linecap:butt;stroke-linejoin:miter;stroke-opacity:1"
       id="path2771"
       d="M 348.2712,307.14362 C 349.11645,305.27781 350.48002,303.72379 351.60466,302.01481 C 354.0429,298.26701 356.88613,294.82195 359.53863,291.22712 C 362.74359,287.01024 366.44697,283.22423 369.82328,279.15286 C 372.71876,275.62994 375.88641,272.36319 379.16571,269.20188 C 381.5236,266.87498 383.94122,264.62162 386.35888,262.35523 C 387.85124,260.75796 389.74677,259.68063 391.55933,258.54911 C 394.99643,257.6595 396.06613,259.69308 396.57225,262.68635 C 397.553,265.58727 397.95913,268.58502 398.29222,271.64086 C 398.87342,275.99717 399.08524,280.38881 399.27871,284.77569 C 399.39771,287.84098 399.58105,290.90329 399.73567,293.96693 C 399.78658,294.9758 398.35982,295.0478 398.30891,294.03893 L 398.30891,294.03893 C 398.15415,290.97227 397.97064,287.90694 397.85153,284.83862 C 397.66096,280.51585 397.50315,276.17307 396.81936,271.89445 C 396.07,269.19276 395.46039,266.26983 394.07081,263.86667 C 393.05468,264.03978 392.49642,263.7027 393.73317,263.92419 C 392.37345,264.66971 391.001,265.39674 389.8317,266.50807 C 387.22797,268.45738 384.66563,270.43454 382.12642,272.46821 C 378.84297,275.37894 375.55754,278.28816 372.68049,281.61695 C 369.20419,285.4919 366.20595,289.74414 363.05257,293.88161 C 360.42187,297.27881 358.45369,301.03358 356.68467,304.94373 C 355.84404,306.66119 355.2383,308.48099 354.21761,310.08785 C 351.70188,314.04831 346.33508,311.41744 348.2712,307.14362 z " />
    <path
       style="fill:#000000;fill-opacity:1;fill-rule:nonzero;stroke:none;stroke-width:1px;stroke-linecap:butt;stroke-linejoin:miter;stroke-opacity:1"
       id="path2773"
       d="M 364.54045,330.44186 C 365.68666,328.81141 366.83031,327.227 368.15922,325.73858 C 369.42885,323.70698 371.24143,322.33712 373.17949,321.01267 C 374.01349,320.44271 374.74667,321.38782 374.06523,322.13351 L 374.06523,322.13351 C 372.62683,323.70749 371.17213,325.30228 369.75139,326.9137 C 368.90512,328.46184 367.91016,329.96897 367.77956,331.76426 C 367.60006,334.23166 363.11767,332.46571 364.54045,330.44186 z " />
    <path
       style="fill:#000000;fill-opacity:1;fill-rule:nonzero;stroke:none;stroke-width:1px;stroke-linecap:butt;stroke-linejoin:miter;stroke-opacity:1"
       id="path2777"
       d="M 388.02032,328.26014 C 387.58952,327.23217 386.81815,326.44087 386.18517,325.54089 C 384.50937,324.05699 382.49462,323.267 380.49806,322.34926 C 380.02731,322.37438 379.55656,322.3995 379.08581,322.42462 C 378.07709,322.47845 378.00688,321.04316 379.01601,320.99775 L 379.01601,320.99775 C 379.54985,320.97373 380.08369,320.94971 380.61753,320.92569 C 383.55816,320.69049 386.08656,320.77305 388.58918,322.77821 C 389.90836,323.86694 391.18364,324.86742 391.77646,326.55535 C 392.74298,329.30731 389.14768,330.95021 388.02032,328.26014 z " />
    <path
       style="fill:#000000;fill-opacity:1;fill-rule:nonzero;stroke:none;stroke-width:1px;stroke-linecap:butt;stroke-linejoin:miter;stroke-opacity:1"
       id="path2783"
       d="M 397.11432,303.50944 C 395.37529,305.15314 394.70818,307.72065 394.08039,310.02162 C 392.60097,316.14558 392.25841,322.54179 391.87155,328.82294 C 391.66252,332.1432 391.77367,335.46568 391.89907,338.78537 C 391.9372,339.7948 390.50938,339.84855 390.47151,338.83911 L 390.47151,338.83911 C 390.34517,335.4722 390.23333,332.10246 390.44568,328.73505 C 390.83905,322.35901 391.63955,316.02649 392.13643,309.6667 C 392.43886,306.59446 392.39778,303.40669 393.46727,300.47834 C 394.61762,297.32858 399.55128,301.20606 397.11432,303.50944 z " />
    <path
       style="fill:#000000;fill-opacity:1;fill-rule:nonzero;stroke:none;stroke-width:1px;stroke-linecap:butt;stroke-linejoin:miter;stroke-opacity:1"
       id="path2785"
       d="M 402.07146,302.65473 C 401.75114,303.85953 402.00046,305.0471 402.04613,306.2543 C 402.08432,307.26373 400.97492,307.4431 400.63731,306.49103 L 400.63731,306.49103 C 400.27244,305.46211 400.27378,304.33122 399.29944,303.60738 C 397.63569,302.37136 402.60401,300.65168 402.07146,302.65473 z " />
    <path
       style="fill:#000000;fill-opacity:1;fill-rule:nonzero;stroke:none;stroke-width:1px;stroke-linecap:butt;stroke-linejoin:miter;stroke-opacity:1"
       id="path2787"
       d="M 407.15627,309.27583 C 407.00643,307.10316 406.79919,305.12512 406.98968,302.94729 C 407.22379,299.91184 408.07779,296.91838 408.87003,293.97696 C 409.35809,291.36926 410.42081,289.00956 411.63613,286.68289 C 412.77173,284.74466 414.17747,283.37992 416.02204,282.21765 C 420.1768,281.74812 420.80615,284.49272 422.33374,287.76851 C 424.0014,292.70957 426.12998,297.46253 427.81725,302.39782 C 428.16328,303.48076 428.50931,304.56371 428.85535,305.64665 C 429.16281,306.60887 427.80192,307.04366 427.49454,306.0814 L 427.49454,306.0814 C 427.1515,305.00752 426.80846,303.93363 426.46542,302.85974 C 424.83574,298.08793 423.30855,293.14895 419.80457,289.38129 C 419.13403,288.73393 416.00185,287.04648 418.00975,287.1444 C 417.35909,287.66849 416.09438,288.1178 415.70368,289.22956 C 414.56069,291.09635 413.37256,292.9473 412.77462,295.08584 C 412.05079,297.85382 411.3617,300.61131 410.84005,303.40878 C 410.60141,305.40215 409.91388,307.28085 409.92612,309.27583 C 409.93813,311.23437 407.29103,311.22976 407.15627,309.27583 z " />
    <path
       style="fill:#000000;fill-opacity:1;fill-rule:nonzero;stroke:none;stroke-width:1px;stroke-linecap:butt;stroke-linejoin:miter;stroke-opacity:1"
       id="path2791"
       d="M 394.44924,246.14799 C 396.29895,243.35488 398.47753,240.69738 400.28453,237.77903 C 403.34006,232.87272 406.28277,227.89756 409.21301,222.9158 C 411.29681,219.31228 413.63376,215.86905 415.93842,212.4063 C 417.56789,209.80429 419.65576,208.21913 422.37459,207.00348 C 425.83628,206.71621 427.71606,208.70417 429.79048,211.18298 C 432.51087,214.10981 433.65117,217.85293 434.6958,221.63116 C 436.23267,226.93346 437.49577,232.33514 438.24664,237.80559 C 439.23164,243.44699 439.30838,249.16561 439.55985,254.86687 C 439.72254,257.25981 439.40077,259.62813 439.32432,262.01734 C 439.29201,263.02697 437.86411,262.98124 437.89648,261.9716 L 437.89648,261.9716 C 437.97254,259.59919 437.78595,257.25485 437.91297,254.88264 C 438.05598,249.25159 437.59045,243.60935 436.78385,238.03713 C 435.82233,232.68685 435.05713,227.28657 433.33203,222.10576 C 431.90086,218.75393 429.9306,215.84011 427.81777,212.89236 C 426.33488,211.57177 425.14655,210.0251 423.0522,209.83418 C 420.73919,210.56307 418.88821,211.34909 417.35208,213.49261 C 414.73663,216.66246 412.45698,220.04537 410.44436,223.64008 C 407.50862,228.63115 404.56036,233.61559 401.49912,238.53108 C 399.73113,241.38644 398.2954,244.40986 396.88815,247.35556 C 396.05861,249.09197 393.38671,247.75244 394.44924,246.14799 z " />
    <path
       style="fill:#000000;fill-opacity:1;fill-rule:nonzero;stroke:none;stroke-width:1px;stroke-linecap:butt;stroke-linejoin:miter;stroke-opacity:1"
       id="path2793"
       d="M 434.9523,265.20108 C 437.29415,263.70508 439.04446,261.47809 440.91322,259.45372 C 442.76144,257.25631 444.34002,254.88547 446.08128,252.60898 C 447.22164,250.99631 448.76467,249.73706 450.25566,248.45626 C 453.05737,247.62932 454.5597,248.26609 456.56601,250.08719 C 458.37678,252.95335 459.21038,256.05148 459.89628,259.3306 C 460.47204,264.92292 460.78248,270.53765 460.64629,276.15982 C 460.51307,282.88205 459.5846,289.55499 458.7447,296.21766 C 457.22987,303.61182 455.29053,310.8818 452.78582,318.00469 C 449.9161,324.74791 448.40494,332.01415 444.93238,338.48373 C 442.65852,341.05205 441.05128,343.6759 439.85863,346.85808 C 439.50411,347.80398 438.16641,347.30262 438.52092,346.35672 L 438.52092,346.35672 C 439.7119,343.179 440.21963,340.15997 440.16115,336.73302 C 441.69998,329.6071 445.39089,323.19781 447.35075,316.17778 C 449.53122,309.37325 452.06001,302.58291 452.46124,295.37733 C 453.36545,288.99789 453.77865,282.57682 453.89854,276.13585 C 453.80251,270.98184 453.72058,265.80769 452.38365,260.78893 C 451.85125,258.39144 451.3963,255.97071 451.08443,253.55083 C 451.27142,253.31765 452.08213,252.72777 452.05414,252.34158 C 450.81788,252.91856 449.273,253.46595 448.17281,254.64587 C 446.00322,256.43737 443.83754,258.25352 441.98634,260.39671 C 440.2951,262.42374 438.22043,264.32129 437.58466,266.94747 C 437.05909,269.11849 433.06988,266.40361 434.9523,265.20108 z " />
    <path
       style="fill:#000000;fill-opacity:1;fill-rule:nonzero;stroke:none;stroke-width:1px;stroke-linecap:butt;stroke-linejoin:miter;stroke-opacity:1"
       id="path2805"
       d="M 275.90317,260.35503 C 276.97998,257.39017 278.61461,254.59322 279.92494,251.68361 C 282.70244,245.55963 285.05104,239.23469 287.46544,232.95461 C 289.58538,227.44407 291.37976,221.81405 293.5888,216.33651 C 294.73992,212.63921 296.10299,209.02586 297.69796,205.5093 C 298.95395,202.71088 300.80306,200.74035 303.21131,198.98818 C 307.1322,196.96061 309.75889,198.85856 312.89521,201.26815 C 316.03707,204.62374 319.14673,208.06528 321.57568,211.97746 C 324.4806,216.44003 327.20488,221.05966 329.7617,225.7377 C 331.9838,229.98307 333.80426,234.42049 335.68508,238.82298 C 336.08193,239.75191 334.76538,240.30645 334.36853,239.37752 L 334.36853,239.37752 C 332.50666,235.01938 330.70519,230.62642 328.50801,226.42259 C 325.99733,221.82454 323.12788,217.57657 319.19638,214.04716 C 315.93057,211.35058 313.16451,208.03567 309.54799,205.77376 C 308.53003,205.25754 307.50242,204.65656 306.47633,204.21518 C 305.17481,205.45856 303.85077,206.56104 303.07875,208.26549 C 301.29949,211.49799 299.50229,214.75855 297.98049,218.14214 C 295.70515,223.57076 293.18682,228.898 291.02446,234.37205 C 288.51738,240.45283 285.77413,246.60528 284.73274,253.13016 C 284.26585,256.02436 283.94806,258.92908 283.76256,261.82568 C 283.40124,267.46802 273.97309,265.66928 275.90317,260.35503 z " />
    <path
       style="fill:#000000;fill-opacity:1;fill-rule:nonzero;stroke:none;stroke-width:1px;stroke-linecap:butt;stroke-linejoin:miter;stroke-opacity:1"
       id="path2811"
       d="M 229.71275,241.82478 C 231.44875,240.39324 232.84626,238.63204 234.29074,236.94493 C 236.19471,233.96515 237.98366,230.91241 239.83906,227.90138 C 240.35203,227.00144 240.96464,226.16466 241.5271,225.2968 C 242.07649,224.44911 243.26398,225.24329 242.71458,226.09097 L 242.71458,226.09097 C 242.15995,226.94673 241.55456,227.77103 241.05003,228.65926 C 239.20305,231.65658 237.32193,234.64018 235.65425,237.7419 C 234.90498,239.79455 234.0433,241.84802 233.6698,244.02893 C 233.12916,247.18582 227.2417,243.86246 229.71275,241.82478 z " />
    <path
       style="fill:#000000;fill-opacity:1;fill-rule:nonzero;stroke:none;stroke-width:1px;stroke-linecap:butt;stroke-linejoin:miter;stroke-opacity:1"
       id="path2833"
       d="M 264.12855,215.09455 C 266.239,215.38353 267.87106,216.65799 269.70445,217.66191 C 272.06423,219.21212 274.49593,220.6243 276.90296,222.08243 C 279.10546,223.25131 280.90635,224.87297 282.63524,226.63677 C 283.88193,228.19416 285.06524,229.60868 286.51835,230.90629 C 287.49531,231.73879 288.34177,232.74097 289.18733,233.68195 C 288.92039,234.15216 288.65346,234.62238 288.38652,235.0926 C 287.81905,236.09222 288.20875,235.642 287.21482,236.21939 L 287.21482,236.21939 C 286.75344,236.48742 286.29206,236.75544 285.83069,237.02347 C 284.87072,236.0996 283.87262,235.16199 282.98992,234.14745 C 281.89195,232.53073 280.7136,231.07684 279.3825,229.61808 C 277.87981,228.15608 276.39499,226.64647 274.68382,225.40029 C 272.49712,223.77647 270.32531,222.17419 267.74825,221.18511 C 266.15288,220.31704 264.53995,219.58088 262.93142,218.82123 C 260.42868,217.6393 261.38635,214.71906 264.12855,215.09455 z " />
    <path
       style="fill:#000000;fill-opacity:1;fill-rule:nonzero;stroke:none;stroke-width:1px;stroke-linecap:butt;stroke-linejoin:miter;stroke-opacity:1"
       id="path2841"
       d="M 364.75067,211.72897 C 366.59262,210.69126 368.08872,209.16183 369.6338,207.74744 C 372.49656,205.49398 374.80057,202.66803 377.25543,199.99797 C 378.89044,197.88309 380.71095,195.92822 382.57463,194.01839 C 384.66802,192.01443 386.71177,192.00389 389.3978,192.19149 C 392.60323,193.44539 394.83288,196.24502 397.18868,198.62903 C 400.04256,201.84476 402.47942,205.39745 405.04461,208.84497 C 406.87965,211.50348 408.71947,214.10339 410.13691,217.00489 C 410.64776,218.23662 410.28855,219.52719 410.10664,220.80355 C 409.96411,221.8036 409.59695,221.87582 408.76706,221.29989 L 408.76706,221.29989 C 407.83393,220.65231 406.81155,220.01163 406.16424,219.06149 C 404.60852,216.41375 403.40498,213.58127 401.78042,210.96349 C 399.7107,207.42228 397.53502,203.99729 394.63163,201.05739 C 392.78342,199.21354 391.09387,197.35639 388.42744,196.58251 C 387.27679,196.6541 386.35002,196.09615 385.33092,197.23328 C 383.35673,198.82148 381.39815,200.42363 379.54054,202.15295 C 377.00726,204.72951 374.3492,207.20353 372.37196,210.25397 C 371.10347,211.95123 369.74788,213.62742 368.78817,215.53198 C 367.02327,219.03445 361.33363,213.65406 364.75067,211.72897 z " />
    <path
       style="fill:#000000;fill-opacity:1;fill-rule:nonzero;stroke:none;stroke-width:1px;stroke-linecap:butt;stroke-linejoin:miter;stroke-opacity:1"
       id="path2845"
       d="M 180.12643,248.84908 C 180.40106,246.77143 180.62991,244.66669 180.97713,242.59481 C 181.45304,239.64088 181.84239,236.68577 182.07887,233.70454 C 182.23706,231.20492 183.2037,229.09605 184.48483,227.00056 C 186.91829,224.44092 189.23075,224.68492 192.34162,225.09346 C 195.67984,226.07035 198.60743,227.57174 201.51219,229.4331 C 204.54569,231.91896 207.46708,234.45837 210.29176,237.17914 C 212.41961,238.91995 213.90608,241.08994 215.32133,243.397 C 215.84953,244.25805 214.9889,244.97759 214.22659,244.3148 L 214.22659,244.3148 C 212.24143,242.58884 210.38558,240.79046 208.78398,238.68681 C 206.14281,236.00355 203.58805,233.14061 200.35819,231.14751 C 197.7888,229.52714 195.39448,227.60963 192.20415,228.05388 C 190.78279,228.56468 189.3033,228.73019 188.23731,229.89723 C 187.47991,231.35998 186.38467,232.66331 186.22525,234.48615 C 185.4535,237.27969 184.96424,240.11189 184.7214,243.01414 C 184.56148,245.17095 184.25109,247.31412 183.94344,249.43911 C 183.55212,252.14202 179.76854,251.55662 180.12643,248.84908 z " />
    <path
       style="fill:#000000;fill-opacity:1;fill-rule:nonzero;stroke:none;stroke-width:1px;stroke-linecap:butt;stroke-linejoin:miter;stroke-opacity:1"
       id="path2853"
       d="M 296.00219,330.82463 C 297.11912,332.68576 297.30464,334.80006 297.5241,336.92746 C 298.14715,340.82843 298.429,344.12444 296.62288,347.71912 C 296.70981,348.43592 296.79675,349.15272 296.88369,349.86952 C 297.00531,350.87233 295.58712,351.04433 295.46551,350.04152 L 295.46551,350.04152 C 295.3788,349.32655 295.29209,348.61158 295.20538,347.89662 C 292.65341,344.92493 292.11262,341.73372 291.53008,337.93837 C 291.11454,335.75482 290.60213,333.59459 291.39849,331.46232 C 292.54833,328.38365 294.31107,328.00675 296.00219,330.82463 z " />
    <path
       style="fill:#000000;fill-opacity:1;fill-rule:nonzero;stroke:none;stroke-width:1px;stroke-linecap:butt;stroke-linejoin:miter;stroke-opacity:1"
       id="path2855"
       d="M 310.17525,327.29458 C 310.30852,329.95075 309.9437,333.09389 309.94488,335.95084 C 310.12714,339.4504 309.26164,342.73356 309.61502,346.196 C 309.71758,347.20093 308.31918,347.35864 308.19544,346.3561 L 308.19544,346.3561 C 307.76389,342.85944 306.2333,339.73166 305.99619,336.16907 C 305.69445,333.41377 305.15298,330.41663 304.76309,327.87766 C 304.17887,324.07314 309.98237,323.45029 310.17525,327.29458 z " />
    <path
       style="fill:#000000;fill-opacity:1;fill-rule:nonzero;stroke:none;stroke-width:1px;stroke-linecap:butt;stroke-linejoin:miter;stroke-opacity:1"
       id="path2857"
       d="M 325.45401,314.03976 C 325.69866,316.89852 325.09392,319.65309 324.63222,322.4614 C 324.46832,327.89466 322.18779,332.66966 320.66445,337.76021 C 320.37486,338.72797 319.44272,338.69036 319.2371,337.70135 L 319.2371,337.70135 C 318.15583,332.5007 316.52172,327.52858 316.98489,322.12059 C 316.78768,319.68008 316.41397,317.24031 316.23376,314.81047 C 315.74985,308.28595 324.89617,307.52115 325.45401,314.03976 z " />
    <path
       style="fill:#000000;fill-opacity:1;fill-rule:nonzero;stroke:none;stroke-width:1px;stroke-linecap:butt;stroke-linejoin:miter;stroke-opacity:1"
       id="path2859"
       d="M 335.57031,327.36914 C 335.18198,329.7785 334.62118,332.21006 334.27185,334.66081 C 333.93461,337.52815 332.97101,340.18295 332.45759,343.00745 C 332.27693,344.00131 331.04211,343.89545 331.03425,342.88532 L 331.03425,342.88532 C 331.01157,339.97234 330.55135,337.15538 330.96156,334.23876 C 331.21424,331.8499 331.33462,329.46481 331.35259,327.08215 C 331.37513,324.09296 336.04597,324.41795 335.57031,327.36914 z " />
    <path
       style="fill:#000000;fill-opacity:1;fill-rule:nonzero;stroke:none;stroke-width:1px;stroke-linecap:butt;stroke-linejoin:miter;stroke-opacity:1"
       id="path2861"
       d="M 350.06191,321.11264 C 349.39712,324.54639 348.03353,328.0713 347.04361,331.50699 C 345.63289,336.10772 343.49111,340.17179 342.69476,344.9508 C 342.52873,345.94722 341.11958,345.7124 341.28562,344.71599 L 341.28562,344.71599 C 342.07344,339.98834 341.50764,335.44936 341.63712,330.68537 C 341.6882,327.25496 341.32612,323.79176 341.03943,320.46937 C 340.48955,314.097 351.27764,314.83319 350.06191,321.11264 z " />
    <path
       style="fill:#000000;fill-opacity:1;fill-rule:nonzero;stroke:none;stroke-width:1px;stroke-linecap:butt;stroke-linejoin:miter;stroke-opacity:1"
       id="path2872"
       d="M 372.93746,498.81925 C 374.78002,501.24058 376.91225,503.46881 378.96458,505.73346 C 384.06573,509.10774 389.16892,512.96616 393.48889,517.37746 C 398.66405,522.83433 403.77038,528.32207 408.93748,533.80865 C 413.09205,538.29209 418.45048,541.43244 423.41378,544.96379 C 428.4269,547.86929 433.76534,549.57054 439.2922,551.14497 C 446.83875,552.8659 454.63523,553.01055 462.34485,553.03271 C 473.39116,552.71398 484.39355,551.69456 495.27473,549.77906 C 507.9237,547.6634 520.1248,543.67758 532.10639,539.19804 C 542.07488,535.32857 551.77425,530.79828 561.31127,525.96999 C 566.4101,523.17601 571.60516,520.55482 576.71263,517.79037 C 579.66774,516.16781 582.51929,515.0473 585.7961,514.61116 C 587.82261,515.63256 590.00029,516.21515 592.03894,517.01254 C 593.36936,517.53292 593.26093,517.40759 592.96904,518.80602 L 592.96904,518.80602 C 592.51762,520.96869 591.91361,523.17322 591.41566,525.38788 C 588.60075,528.00275 585.67101,529.67241 581.8117,530.5815 C 576.25343,532.12735 570.77247,533.94811 565.2224,535.53623 C 554.92037,538.81109 544.78278,542.55457 534.61439,546.21717 C 522.15733,550.46862 509.61226,554.45937 496.79848,557.50537 C 485.56863,559.95023 474.29531,562.33245 462.80081,563.1406 C 454.00459,563.93143 445.14704,564.50131 436.38934,562.94297 C 429.41335,561.44032 422.46614,558.88084 416.83316,554.39899 C 411.19582,550.18576 406.16743,545.78411 401.81625,540.18842 C 396.96437,534.50087 392.42251,528.57744 387.57274,522.91494 C 383.53072,518.38708 379.89501,513.46359 376.0266,508.85156 C 373.591,506.78955 371.1734,504.67887 368.73914,502.6458 C 365.65621,500.07097 370.50504,495.62276 372.93746,498.81925 z " />
    <path
       style="fill:#000000;fill-opacity:1;fill-rule:nonzero;stroke:none;stroke-width:1px;stroke-linecap:butt;stroke-linejoin:miter;stroke-opacity:1"
       id="path2880"
       d="M 451.69684,455.50325 C 457.29351,456.18024 462.85393,455.43494 468.38353,454.5405 C 481.97185,452.89081 494.94197,448.36616 507.79224,443.86936 C 522.17882,438.90847 536.25192,433.13458 550.07866,426.79247 C 559.34117,422.01682 567.96677,416.18344 576.50697,410.2477 C 581.95038,406.44685 587.42278,402.71259 592.67323,398.65685 C 596.52243,395.7473 599.93284,392.37931 603.19771,388.85889 C 605.05153,386.97497 606.46844,384.90217 607.80853,382.66208 C 607.95701,382.12367 607.83313,381.54534 607.84543,380.98697 C 608.55772,381.10391 604.08361,379.59557 603.33668,379.3756 C 595.5888,378.00759 587.63882,378.30746 579.81335,378.79375 C 569.03855,379.27412 558.35042,380.90733 547.68042,382.407 C 537.34134,384.07958 526.99026,385.68296 516.67007,387.46941 C 515.26243,387.71307 514.91786,385.72233 516.3255,385.4787 L 516.3255,385.4787 C 526.66681,383.68887 537.03891,382.0815 547.39923,380.40636 C 558.11738,378.89994 568.85878,377.62864 579.59759,376.30959 C 587.74147,375.40168 595.80915,374.03031 603.95879,373.21925 C 608.6936,373.41501 613.1594,373.13677 616.08387,377.44131 C 616.68901,380.60844 617.01084,383.09741 615.22184,386.00226 C 613.58822,389.15598 612.04624,392.46386 609.42033,394.93424 C 605.53049,398.42931 601.53001,401.87709 597.14688,404.80357 C 591.41135,408.52816 585.81668,412.48233 579.65704,415.50433 C 570.28006,420.30821 560.64685,424.58178 550.92092,428.62883 C 537.0367,434.9965 522.90563,440.79491 508.45953,445.77628 C 495.47747,450.3191 482.49875,454.87186 469.67214,459.84217 C 463.83175,461.74338 458.15976,464.05046 452.34785,465.98179 C 445.30291,468.32286 444.32683,454.61176 451.69684,455.50325 z " />
    <path
       style="fill:#000000;fill-opacity:1;fill-rule:nonzero;stroke:none;stroke-width:1px;stroke-linecap:butt;stroke-linejoin:miter;stroke-opacity:1"
       id="path2882"
       d="M 346.29541,506.73338 C 343.38355,506.24335 340.71875,507.23023 337.9664,508.01485 C 333.4412,511.60209 334.13355,508.31264 332.84569,508.18599 C 335.67892,509.37247 338.81859,508.85692 341.822,508.68216 C 345.90873,507.69592 347.1319,507.18972 350.53659,508.70985 C 350.20811,511.55452 348.46057,513.82741 347.20652,516.40349 C 350.05614,520.5867 349.45207,525.9743 350.3079,531.41242 C 350.75431,538.12184 352.16162,544.49591 351.07682,551.1983 C 349.04771,564.01995 347.73584,576.92794 346.35748,589.84114 C 345.02641,610.10527 343.26878,630.35856 342.6025,650.65699 C 341.82081,670.61029 341.91889,690.58763 341.114,710.53951 C 341.79442,720.06604 339.35039,729.2441 338.28642,738.60456 C 338.12507,740.02399 336.39055,740.00163 336.26628,738.57848 L 336.26628,738.57848 C 335.44443,729.1666 333.34841,719.88009 334.58316,710.36111 C 334.8689,690.39084 336.1431,670.44823 336.45887,650.47761 C 336.97865,630.15573 336.62279,609.81325 336.57696,589.48557 C 336.13672,576.32682 335.71681,563.14634 335.43122,550.00068 C 335.40607,543.3237 337.96426,537.66691 339.22699,531.19885 C 339.68174,525.06995 340.25842,520.13984 343.77892,515.56535 C 344.00135,514.52821 345.23152,507.17809 345.6211,510.56046 C 344.40229,510.60611 343.18205,510.7721 341.96467,510.69742 C 338.0046,510.92512 333.85046,511.56074 330.11671,510.00276 C 327.22851,504.64391 332.1358,504.54917 336.28313,502.93494 C 339.24987,501.90652 342.28226,500.94786 345.11652,499.58909 C 349.73346,497.37568 351.34451,507.58308 346.29541,506.73338 z " />
    <path
       style="fill:#000000;fill-opacity:1;fill-rule:nonzero;stroke:none;stroke-width:1px;stroke-linecap:butt;stroke-linejoin:miter;stroke-opacity:1"
       id="path2965"
       d="M 323.46179,728.99442 C 336.31265,727.89939 347.70832,718.99266 358.80312,712.92487 C 391.80461,695.09978 426.79315,681.47979 462.04303,668.86702 C 504.86423,653.8045 549.2964,644.72355 594.27874,639.39161 C 624.80127,636.337 655.64512,637.84917 686.0386,641.39251 C 710.25122,645.1647 707.93557,664.12611 691.887,676.98114 C 684.92784,681.07537 678.67053,686.67398 673.85601,693.15573 C 669.18212,674.23713 680.24441,686.64199 691.72503,693.24612 C 705.73205,699.97795 717.40301,708.48096 724.01128,722.74256 C 727.727,740.16335 715.01161,749.72611 701.66827,757.68405 C 682.96665,766.63186 662.7472,771.74445 642.51548,775.84864 C 612.30195,780.08988 581.9209,779.94018 551.52789,778.53512 C 511.63694,775.90723 471.88286,771.58913 432.07215,767.99294 C 398.04341,764.64543 363.88322,763.28085 329.71557,762.47238 C 315.92649,761.98802 300.61865,761.48449 288.86471,768.49203 C 295.02884,754.677 294.60393,759.43725 310.75777,764.81863 C 335.90384,772.62213 362.23745,774.95723 388.41066,776.0335 C 420.25922,777.04018 452.13042,776.7597 483.99033,776.80362 C 512.04435,776.92662 540.09468,777.26827 568.14796,776.91688 C 580.35577,776.78797 592.5543,776.28405 604.75196,775.80866 C 606.77073,775.72998 606.88199,778.58496 604.86322,778.66363 L 604.86322,778.66363 C 592.64041,779.13995 580.41671,779.64459 568.18373,779.7738 C 540.11721,780.12507 512.05365,779.78433 483.98639,779.66076 C 452.08864,779.61678 420.17958,779.89751 388.29321,778.88823 C 361.72534,777.7947 335.13906,777.16055 308.5974,775.49975 C 299.2551,774.70119 262.1474,769.99984 285.66024,755.28906 C 300.29413,757.38429 314.92566,760.04927 329.78316,759.61604 C 364.01405,760.42616 398.23745,761.79428 432.3292,765.14738 C 472.09832,768.73986 511.81092,773.05256 551.65994,775.68103 C 581.53555,777.06428 612.18141,778.7536 641.34865,770.85948 C 660.31721,765.80804 678.62813,758.90929 694.31719,746.75412 C 700.63831,741.85286 706.8127,736.80013 707.66797,728.39703 C 704.12566,717.58329 696.953,710.8632 685.97752,706.44537 C 670.84208,701.99135 653.91694,704.6148 652.7552,684.86228 C 660.22969,675.6404 672.33217,672.96263 680.93674,664.69067 C 687.01348,658.26394 692.18479,660.35106 682.85301,651.41059 C 655.92773,636.16243 624.44668,640.17982 594.61487,642.22891 C 549.84528,647.52967 505.62456,656.57016 463.00552,671.55717 C 427.89569,684.1179 393.04532,697.68037 360.17407,715.43161 C 348.48917,721.8221 335.94875,727.39055 325.92095,736.24716 C 321.86212,739.83194 318.06611,729.45419 323.46179,728.99442 z " />
    <path
       style="fill:#000000;fill-opacity:1;fill-rule:nonzero;stroke:none;stroke-width:1px;stroke-linecap:butt;stroke-linejoin:miter;stroke-opacity:1"
       id="path2971"
       d="M 313.7504,726.568 C 311.94554,716.7953 307.13538,707.94727 302.66891,699.06844 C 287.39039,675.38949 262.81743,659.7304 239.34579,645.09723 C 203.33898,623.79068 163.79615,610.0274 123.81693,598.3898 C 82.503854,586.92754 39.985361,581.57885 -2.7789827,580.4848 C -29.66041,581.6465 -61.265216,581.03132 -82.000356,600.65386 C -93.743666,618.95028 -82.654006,635.85591 -69.648676,649.87573 C -40.705271,674.95715 -4.8822057,689.08951 30.784679,701.62847 C 63.055597,711.51699 96.924437,720.49728 130.80188,715.50794 C 144.18149,711.22562 152.7066,704.62997 147.38487,690.90592 C 134.48762,667.4782 108.02435,661.03788 84.051824,654.67708 C 48.681604,646.21817 12.413758,645.07474 -23.699726,647.46505 C -46.910516,650.94771 -75.581216,651.95806 -91.769816,671.24016 C -99.259666,685.62926 -86.922386,697.217 -77.020676,706.61696 C -46.968987,725.3593 -12.087228,733.56483 22.053996,741.32345 C 65.65356,750.81247 110.18381,753.42427 154.67088,753.51611 C 188.31902,753.33069 221.80643,750.0896 255.1175,745.60319 C 257.11973,745.33353 257.50103,748.16523 255.49878,748.43478 L 255.49878,748.43478 C 222.05915,752.93656 188.44267,756.18947 154.66487,756.37325 C 109.9669,756.27747 65.225941,753.64825 21.420711,744.10953 C -13.119192,736.25665 -48.377811,727.91444 -78.757256,708.91092 C -94.310866,699.48255 -113.43018,684.1097 -95.983296,666.27338 C -74.120166,652.86467 -49.348286,646.76972 -23.888076,644.61412 C 12.535765,642.21216 49.114355,643.37045 84.785235,651.91568 C 110.71422,658.80881 138.83405,666.88208 158.64081,685.77734 C 169.76871,708.51104 153.84078,720.44347 131.15139,720.0874 C 96.590827,720.35497 62.606121,715.95838 29.836874,704.32382 C -6.2442127,691.63303 -42.465017,677.30274 -71.697376,651.86723 C -87.269666,636.54933 -107.08372,615.99387 -84.997786,596.65376 C -59.800736,581.72463 -31.895708,577.12054 -2.7056457,577.6286 C 40.303903,578.7369 83.066726,584.11121 124.61562,595.64656 C 164.84462,607.36133 204.63139,621.22121 240.8577,642.67289 C 265.0935,657.79184 287.74562,674.76542 307.37565,695.66236 C 315.217,703.64447 323.03143,712.63664 327.10429,723.08728 C 330.64767,732.17932 315.5226,736.16384 313.7504,726.568 z " />
    <path
       style="fill:#000000;fill-opacity:1;fill-rule:nonzero;stroke:none;stroke-width:1px;stroke-linecap:butt;stroke-linejoin:miter;stroke-opacity:1"
       id="path3109"
       d="M 596.69726,97.59312 C 598.12733,96.475212 596.70938,94.643776 596.56296,94.35864 C 598.97254,94.496243 601.31887,93.982286 603.63767,93.328975 C 605.61624,92.294275 608.286,92.499129 609.9955,91.058476 C 610.13146,90.943905 610.28016,91.154005 610.14394,91.268196 L 610.14394,91.268196 C 608.23753,92.866279 606.70804,94.695021 604.14605,95.204321 C 601.63612,96.11197 599.16212,97.250273 596.57891,97.852035 C 594.34688,97.904472 593.1973,95.71497 595.05676,93.987762 C 597.04407,92.141803 594.57544,99.251798 596.69726,97.59312 z " />
    <path
       style="fill:#000000;fill-opacity:1;fill-rule:nonzero;stroke:none;stroke-width:1px;stroke-linecap:butt;stroke-linejoin:miter;stroke-opacity:1"
       id="path3111"
       d="M 606.49129,84.028827 C 607.88359,84.451665 607.56965,86.699157 607.64456,87.980118 C 607.7836,90.826685 608.18255,93.651695 609.05672,96.342096 C 609.79148,98.410621 610.31241,96.939203 608.91115,96.98842 C 608.70338,96.995717 608.38994,97.412081 608.5566,97.547461 C 608.81777,97.759612 609.20726,97.5113 609.53259,97.493218 C 609.67977,97.156606 609.82696,96.819995 609.97415,96.483383 C 610.04809,96.314317 610.26758,96.428387 610.19354,96.597396 L 610.19354,96.597396 C 610.04342,96.940086 609.89329,97.282775 609.74317,97.625465 C 610.37188,101.82613 606.08189,100.18484 606.57922,96.999282 C 606.19435,94.111781 605.78283,91.224338 605.19959,88.375397 C 604.90937,87.045841 604.152,85.486164 605.02681,84.291586 C 605.68141,83.397698 605.48033,83.721803 606.49129,84.028827 z " />
    <path
       style="fill:#000000;fill-opacity:1;fill-rule:nonzero;stroke:none;stroke-width:1px;stroke-linecap:butt;stroke-linejoin:miter;stroke-opacity:1"
       id="path3113"
       d="M 614.94244,83.086147 C 615.32928,82.025482 615.63893,81.158862 616.53629,80.452852 C 619.81979,80.871851 618.67595,84.534143 618.22725,86.974462 C 617.8334,89.662243 617.21757,92.327463 617.68224,95.045559 C 617.00122,95.306043 618.14981,95.736697 618.13319,95.511661 C 618.08095,94.804453 617.15786,94.502123 616.53895,94.281812 C 617.93779,93.039258 619.32696,91.803198 620.8281,90.703056 C 622.91961,88.941605 625.70019,88.690172 628.2587,88.489377 C 630.28383,88.570297 632.37551,87.73524 634.37208,88.180574 C 635.17508,88.843214 634.80551,88.435918 635.44094,89.443916 C 635.53826,89.598284 635.54162,89.509155 635.51886,89.694785 L 635.51886,89.694785 C 635.35645,91.019819 635.57534,90.438568 634.91494,91.461033 C 633.01014,92.585637 630.68475,92.295132 628.58725,92.621013 C 626.53662,92.850494 624.52888,93.106405 622.54955,93.768937 C 621.03726,94.653145 619.91968,95.966817 618.8549,97.419048 C 616.70799,99.555014 613.8801,98.355944 614.43559,95.021806 C 614.85392,92.220092 615.32157,89.427652 615.66235,86.612135 C 615.75918,84.556219 614.76137,83.572632 616.66068,83.712526 C 616.99782,82.542948 615.91782,82.85616 615.48004,83.405037 C 615.19613,83.761011 614.7826,83.524435 614.94244,83.086147 z " />
    <path
       style="fill:#000000;fill-opacity:1;fill-rule:nonzero;stroke:none;stroke-width:1px;stroke-linecap:butt;stroke-linejoin:miter;stroke-opacity:1"
       id="path3115"
       d="M 593.11493,110.41664 C 594.06961,109.68378 595.49036,109.24068 596.71759,108.86248 C 601.3045,107.57185 605.88129,106.21736 610.45113,104.84772 C 615.27475,103.39152 620.04138,101.71513 624.76837,99.92399 C 626.20948,99.503799 628.71485,98.248213 629.65736,100.14146 C 629.73932,100.30608 629.66397,100.21975 629.64631,100.40604 L 629.64631,100.40604 C 629.46206,102.35093 626.78144,102.38886 625.46311,102.77506 C 620.54852,103.76878 615.71114,105.16493 610.89193,106.60071 C 606.34492,107.95331 601.74495,109.1732 597.28706,110.8305 C 595.87858,111.366 594.54175,111.84479 593.11493,111.8603 C 592.17818,111.87048 592.34908,111.00454 593.11493,110.41664 z " />
    <path
       style="fill:#000000;fill-opacity:1;fill-rule:nonzero;stroke:none;stroke-width:1px;stroke-linecap:butt;stroke-linejoin:miter;stroke-opacity:1"
       id="path3117"
       d="M 598.38618,116.20423 C 597.94063,116.82236 598.7111,117.08417 599.12289,117.32617 C 599.69028,119.59469 600.94015,121.44059 602.40868,123.11159 C 604.15995,124.97142 604.02209,123.13734 603.14017,123.54153 C 602.42159,124.18278 601.70302,124.82402 600.98444,125.46525 C 601.03806,125.5298 601.09166,125.59433 601.14528,125.65886 C 600.83441,123.87643 599.91653,122.27539 599.38651,120.545 C 598.75721,116.72522 602.01403,115.30487 604.703,114.13025 C 609.09308,112.21373 613.44622,110.21173 617.51612,107.57235 C 620.68614,104.63686 626.59544,102.76451 625.39857,109.9038 C 623.72208,112.72476 622.29912,115.6699 621.71302,118.98859 C 620.98158,123.26282 620.39468,122.13289 617.35371,121.96233 C 617.18208,121.9527 617.19733,121.6842 617.36874,121.69799 L 617.36874,121.69799 C 617.59579,121.71625 617.98047,121.98904 618.04991,121.75276 C 618.22991,121.1404 615.68755,118.75475 617.56225,117.75156 C 618.526,114.7181 619.6554,111.64957 620.07178,108.46981 C 619.97036,113.73381 626.49402,108.68822 618.85671,110.87815 C 614.37015,112.3639 610.08086,114.46664 605.86174,116.68415 C 604.75148,117.42253 602.87133,118.31465 602.37471,119.72687 C 602.56661,121.49426 603.65605,122.98562 604.54499,124.42066 C 606.19698,128.65691 600.51336,128.8092 600.09113,125.17755 C 598.65482,122.9606 597.09884,120.82295 595.80488,118.50748 C 595.39108,116.74268 596.01936,115.73389 597.28287,114.7338 C 598.28006,113.94449 599.14749,115.14802 598.38618,116.20423 z " />
    <path
       style="fill:#000000;fill-opacity:1;fill-rule:nonzero;stroke:none;stroke-width:1px;stroke-linecap:butt;stroke-linejoin:miter;stroke-opacity:1"
       id="path3119"
       d="M 597.845,119.66947 C 598.7222,117.69676 602.41892,118.09461 604.16863,117.90976 C 607.3096,117.93817 610.47234,115.80168 613.57481,116.64411 C 617.03015,119.21631 612.91271,121.36615 610.96182,122.93884 C 607.37923,125.49918 609.80681,129.65004 609.32847,123.88093 C 605.62399,122.41881 611.06538,122.88848 612.09262,122.92663 C 613.83855,123.26813 613.21173,123.61595 614.12174,122.29518 C 614.22492,122.14541 614.41972,122.30597 614.31558,122.45496 L 614.31558,122.45496 C 613.30415,123.90186 613.72754,123.01792 613.2845,125.22718 C 611.17247,128.30875 608.05732,130.0718 604.73295,128.12728 C 603.50154,121.74167 605.72829,124.32322 609.65744,120.96755 C 611.54168,119.5243 612.41406,117.61976 613.39424,120.59022 C 610.68536,121.47796 607.49142,120.38018 604.79883,121.69398 C 602.76917,122.29443 600.13511,123.89326 598.15708,122.77288 C 596.35954,121.75473 596.96162,121.65612 597.845,119.66947 z " />
    <path
       style="fill:#000000;fill-opacity:1;fill-rule:nonzero;stroke:none;stroke-width:1px;stroke-linecap:butt;stroke-linejoin:miter;stroke-opacity:1"
       id="path3121"
       d="M 612.08211,100.9219 C 613.17948,101.36845 612.33902,103.40708 612.21011,104.35727 C 611.50811,109.45421 611.43022,114.60747 611.5714,119.74855 C 611.6997,124.62859 612.71622,129.3995 613.19617,134.23418 C 613.76385,138.72712 612.30714,138.52214 609.84988,140.7778 C 609.71844,140.89847 609.56156,140.69276 609.69453,140.57411 L 609.69453,140.57411 C 610.82846,139.56246 608.80209,136.18282 609.65712,134.39437 C 609.78264,129.53914 609.83177,124.68427 609.60633,119.82998 C 609.38599,114.61641 609.11332,109.40628 608.64938,104.21093 C 608.57271,102.88422 607.98097,100.28244 609.46293,99.628048 C 611.34753,98.795872 610.17714,100.14673 612.08211,100.9219 z " />
    <path
       style="fill:#000000;fill-opacity:1;fill-rule:nonzero;stroke:none;stroke-width:1px;stroke-linecap:butt;stroke-linejoin:miter;stroke-opacity:1"
       id="path3123"
       d="M 586.03725,133.44423 C 587.76353,132.43677 589.82167,132.24626 591.74993,132.07165 C 598.86567,131.60787 605.92041,130.39128 612.94383,129.10809 C 620.55732,127.69741 627.93777,125.22999 635.36491,122.99412 C 638.00721,122.35966 641.20057,121.27704 643.02678,124.0388 C 643.44035,125.56787 642.96577,125.32437 643.89095,125.47195 C 644.06098,125.49908 644.02579,125.76115 643.85573,125.73401 L 643.85573,125.73401 C 642.92578,125.58562 643.45152,125.5034 642.60879,126.81488 C 640.62217,128.62632 638.21721,127.58293 635.81923,127.40135 C 628.15152,126.95885 620.59088,128.19127 613.13629,130.13957 C 606.1705,131.95653 599.21793,133.82134 592.18709,135.32701 C 591.98604,135.37389 587.74217,136.32732 588.91942,136.06786 C 591.52227,135.49418 583.69629,134.81041 586.03725,133.44423 z " />
    <path
       style="fill:#000000;fill-opacity:1;fill-rule:nonzero;stroke:none;stroke-width:1px;stroke-linecap:butt;stroke-linejoin:miter;stroke-opacity:1"
       id="path3125"
       d="M 574.52025,87.627255 C 575.31011,84.980929 575.59118,87.922926 575.89358,89.117093 C 576.47646,92.489894 578.71173,94.318357 580.6691,96.742733 C 580.84836,96.964756 580.56003,97.241017 580.38088,97.018889 L 580.38088,97.018889 C 578.32994,94.475889 576.53153,92.562885 573.28667,92.179039 C 570.79028,91.417543 568.58494,90.145056 569.50401,86.935935 C 570.56912,83.216892 573.41447,91.332168 574.52025,87.627255 z " />
    <path
       style="fill:#000000;fill-opacity:1;fill-rule:nonzero;stroke:none;stroke-width:1px;stroke-linecap:butt;stroke-linejoin:miter;stroke-opacity:1"
       id="path3131"
       d="M 565.29352,101.37759 C 566.67633,101.91047 568.16487,102.04101 569.61169,102.31339 C 572.77121,102.94736 575.92492,103.66455 578.97186,104.78574 C 582.37574,106.26123 582.70964,109.24405 580.31461,112.0321 C 578.93656,113.34588 576.64843,114.35779 576.2678,116.18501 C 577.46271,113.67967 575.80866,114.11372 579.50918,115.48861 C 582.60056,116.41712 584.56239,118.2657 585.11275,121.74767 C 585.3773,123.58696 583.82928,125.44908 584.06665,127.03237 C 584.11423,124.71446 584.69569,126.17994 585.72053,127.61112 C 587.32477,132.25061 583.43442,134.11056 580.17993,135.52376 C 576.87278,136.74273 573.68968,138.26008 570.55025,139.9094 C 568.84011,141.47045 571.62841,141.37197 571.32934,137.94562 C 571.11613,135.50291 568.01252,136.0623 571.69012,136.47833 C 577.22155,136.56204 582.70524,136.97105 588.21561,137.46981 C 594.46031,138.15922 600.50215,139.92459 606.55317,141.64638 C 611.62139,143.45342 616.79437,144.08037 622.09438,143.87027 C 629.22336,143.13485 636.32664,141.85664 643.27024,139.9518 C 647.61377,139.67041 650.98405,138.90109 654.74595,136.59462 C 654.89574,136.50278 655.0149,136.73366 654.86512,136.82546 L 654.86512,136.82546 C 651.16977,139.08986 648.17179,142.04173 644.48199,144.31728 C 637.31609,147.06837 631.7141,151.42533 624.11204,152.28705 C 617.90145,152.85361 610.4213,150.49342 604.7697,147.36811 C 599.30239,144.83517 593.64022,141.21807 587.74081,140.27036 C 582.51345,139.35304 577.09953,140.43553 571.83775,141.2499 C 570.78128,141.42949 569.66298,142.22522 568.66926,141.79508 C 564.6206,140.04261 565.50506,136.31126 569.03628,135.78457 C 572.1884,134.66862 575.45246,133.77974 578.24231,131.73146 C 579.74217,130.40844 579.72696,128.56156 580.50729,130.52913 C 580.38056,130.16968 578.53264,127.80495 579.00844,126.2862 C 579.37857,124.89529 580.16164,123.68719 580.33098,122.22961 C 580.69194,120.74776 579.35233,120.04842 578.2596,119.48708 C 575.7148,118.544 571.6539,118.1186 573.03123,114.07088 C 574.52816,112.47822 576.51373,111.50876 577.86334,109.72654 C 578.53911,108.68921 579.02445,108.74964 577.71453,107.46159 C 575.27853,105.4664 572.4651,104.32465 569.42385,104.01244 C 567.95809,103.90538 566.47548,103.76471 565.02503,104.05682 C 563.30525,104.40316 563.64468,100.74218 565.29352,101.37759 z "
       sodipodi:nodetypes="cccccccccccscccccscccccccsccccccccccsc" />
    <path
       style="fill:#000000;fill-opacity:1;fill-rule:nonzero;stroke:none;stroke-width:1px;stroke-linecap:butt;stroke-linejoin:miter;stroke-opacity:1"
       id="path3133"
       d="M 571.30183,187.6052 C 575.03427,188.33323 578.76969,187.32117 582.36075,186.33665 C 587.2527,184.99293 591.21959,182.21483 594.79537,178.72868 C 596.22086,177.843 595.15755,174.77539 594.9732,176.94479 C 594.71108,178.60543 593.89336,179.91597 593.95311,181.78642 C 594.11864,184.70766 595.35264,185.84533 598.12424,185.87683 C 603.28641,184.29377 606.18526,179.35094 608.70841,174.91349 C 609.77771,172.12018 608.88385,166.16813 613.31571,175.55416 C 613.85292,176.69192 611.45427,177.25506 610.62429,178.20069 C 609.13176,180.96349 604.04064,186.51876 606.63139,189.74938 C 608.49574,188.11163 605.44487,188.40583 605.62012,187.6487 C 606.00366,185.99183 613.31367,182.31178 614.66601,181.41295 C 620.13216,177.71479 625.88696,174.21369 632.42762,172.94365 C 635.70899,172.55713 639.52176,172.96508 639.90132,176.82743 C 639.93592,177.17956 639.78092,177.029 639.42898,176.99258 L 639.42898,176.99258 C 637.57882,176.80113 635.36933,177.10432 633.33934,177.44869 C 627.36741,178.71592 621.74481,180.58729 616.86635,184.44065 C 613.5338,187.08803 605.93783,195.91568 602.76256,189.83792 C 604.43152,185.44327 606.32514,181.15135 607.82486,176.68925 C 608.18255,175.43894 607.44769,172.50373 608.69098,172.88518 C 617.34914,175.54158 613.00999,174.96025 610.72209,176.49319 C 606.67879,180.33408 602.95315,184.50081 598.79849,188.20997 C 593.6322,190.53195 590.49125,186.9275 589.24762,181.97301 C 589.05323,177.56655 590.08151,172.09113 595.58274,172.26337 C 600.04714,173.81731 599.68234,177.52555 597.16619,180.90286 C 593.62921,185.11286 588.27046,186.91847 583.49548,189.39683 C 579.96391,191.05318 576.21442,192.47634 573.05215,194.78173 C 568.83139,197.8588 566.17512,186.6052 571.30183,187.6052 z " />
    <path
       style="fill:#000000;fill-opacity:1;fill-rule:nonzero;stroke:none;stroke-width:1px;stroke-linecap:butt;stroke-linejoin:miter;stroke-opacity:1"
       id="path3135"
       d="M 591.50823,204.99984 C 587.74299,206.78824 584.19006,208.93211 580.81896,211.38778 C 578.03105,213.78865 574.86342,216.2093 573.37888,219.6863 C 564.44859,219.08934 575.92024,212.56059 578.45094,210.45397 C 582.20642,207.04825 586.62138,199.62914 589.18661,208.40627 C 587.13758,214.90048 584.46128,221.15425 582.72367,227.75874 C 581.34129,231.34207 582.71196,234.89685 583.01912,235.17205 C 591.12741,231.39288 597.75317,223.87969 604.69714,218.11067 C 611.76471,213.39531 617.59198,207.48083 623.44018,201.41943 C 624.37657,201.11845 625.56871,199.80645 626.24933,200.51649 C 633.73145,208.32191 622.4445,212.19647 617.24772,215.86286 C 611.77165,219.65185 605.76791,223.66781 598.84096,222.81782 C 593.43386,218.65862 598.75345,211.23936 601.45431,206.88251 C 605.0119,201.67111 608.58909,195.66144 615.13033,194.41873 C 624.53545,198.67994 617.23748,208.03098 613.92974,214.21575 C 611.12038,219.91001 606.20325,227.35039 609.81893,233.66298 C 615.71292,238.55987 623.95007,236.51754 630.69466,234.95465 C 636.21741,232.76463 641.6089,229.92471 646.58059,226.69462 C 646.8773,226.50185 647.00695,226.49697 647.05713,226.84721 L 647.05713,226.84721 C 648.52889,237.1197 640.9757,240.00003 631.98209,241.75197 C 622.15434,243.25399 609.45602,245.11435 603.14681,235.67754 C 601.58383,227.0644 605.88697,219.81285 609.12718,212.01789 C 610.37244,208.74472 610.66264,208.44419 611.29119,205.15918 C 611.50152,204.05991 610.43874,202.01447 611.53923,201.81074 C 612.43931,201.64412 612.2258,205.09595 614.08624,202.83729 C 614.69151,199.08525 602.26768,205.07143 602.92397,207.82449 C 600.46538,211.53006 596.86895,216.86765 599.15845,221.42607 C 604.71428,223.47511 610.5941,215.4333 614.74453,212.81456 C 626.44409,201.59204 616.70099,203.20233 624.51971,209.23698 C 625.02484,209.62685 625.53601,208.46515 626.04416,208.07923 C 618.0326,206.15139 610.79561,214.36264 605.0169,218.49555 C 597.76218,224.52254 590.50664,230.6558 583.67275,237.12054 C 575.9342,241.72345 578.17976,230.93468 579.7572,226.91919 C 581.48006,221.22735 584.07843,215.15714 583.48849,209.14161 C 586.46977,212.01216 586.17924,205.04704 579.30393,211.3889 C 577.57223,213.12149 577.15365,213.38791 575.759,215.36457 C 575.08427,216.32088 574.74836,219.45442 574.11768,218.4685 C 571.99021,215.14272 578.47782,216.67231 570.74644,216.208 C 574.28939,215.29881 577.24891,212.75912 580.30267,210.67959 C 583.71545,208.18953 587.06421,205.43854 590.96573,203.75698 C 591.84633,203.37744 592.37441,204.58844 591.50823,204.99984 z " />
  </g>
</svg>
