<?xml version="1.0" encoding="utf-8"?>
<!-- Generator: Adobe Illustrator 14.0.0, SVG Export Plug-In  -->
<!DOCTYPE svg PUBLIC "-//W3C//DTD SVG 1.1//EN" "http://www.w3.org/Graphics/SVG/1.1/DTD/svg11.dtd" [
	<!ENTITY ns_flows "http://ns.adobe.com/Flows/1.0/">
]>
<svg version="1.1"
	 xmlns="http://www.w3.org/2000/svg" xmlns:xlink="http://www.w3.org/1999/xlink" xmlns:a="http://ns.adobe.com/AdobeSVGViewerExtensions/3.0/"
	 x="0px" y="0px" width="268px" height="360px" viewBox="132.442 37.519 268 360" enable-background="new 132.442 37.519 268 360"
	 xml:space="preserve">
<defs>
</defs>
<rect x="0.5" y="0.5" display="none" opacity="0.97" fill="#114411" stroke="#221122" width="400" height="400"/>
<path fill="#D5D5C6" d="M201.721,38.94c2.489-0.59,4.959-1.58,7.559-1.4c3.23,2.02-1.609,9.46,3.261,8.93
	c6.62-0.39,12.62,2.44,18.38,5.28c1.58,1.85,2.52,3.94,2.051,6.41c7.42,4.64,18.369,9.67,16.6,20.35c0.65,5.93-6.74,5.68-10.74,5
	c0.23,4.75,1.34,9.67-0.061,14.33c-0.319,0.54-0.949,1.62-1.27,2.16c-3.83-4.94-5.68-12.7-13.13-14.07
	c-2.94,1.25-6.761,4.1-7.011-0.99c3.131,0.75,6.08-0.61,8.931-1.73c-1.101-7.1-8.63-6.68-13.86-8.69c-1.91,3.12,5.76,8.56,0.6,7.99
	l-0.489-0.79c-1.79-6.96-11.55-5.97-13.45-12.33c0.561-0.28,1.68-0.84,2.24-1.12c3.51,0.51,7.17,1.84,10.42-0.68
	c2.971-1.84,6.05,2.3,9.02-0.18c1.51,1.15,2.711,2.64,3.891,4.12c1.21,7.41,11.5,4.14,16.6,8.01c1.301-6.27-4.77-9.25-5.85-15.01
	c-2.86-6.11-10.09-7.37-15.971-8.69c5.61-4.29-7.52-3.63-10.129-1.17c-7.221-3.28,2.709-10.08,0.229-15.17
	c-9.149,1.2-18.08,3.84-27,6.13c2.95,4.78,7.229,8.51,11.05,12.57c-2.72-0.43-4.76,0.38-6.119,2.44c-4.9-0.93-9.181,2.29-13.521,2
	c3.729-2.74,8.12-4.35,12.56-5.54c-1.56-4.54-7.199-7.3-6.98-12.39C186.84,42.44,194.391,41.09,201.721,38.94z"/>
<path fill="#C2BDA8" d="M182.54,45.63c8.92-2.29,17.851-4.93,27-6.13c2.479,5.09-7.45,11.89-0.229,15.17
	c-0.551,1.69-1.07,3.39-1.631,5.08c-2.119-2.93-0.4,3.35-1.029,4.81c-0.311,4.63,0.359-1.37,2.619-0.78
	c3.73,1.59,8.26,0.95,11.5,3.63c-2.97,2.48-6.049-1.66-9.02,0.18c-3.25,2.52-6.91,1.19-10.42,0.68c6.609,0.08,1.15-4.12-0.37-7.32
	c-4.44-0.74-9.08-1.97-13.489-0.31c1.359-2.06,3.399-2.87,6.119-2.44C189.77,54.14,185.49,50.41,182.54,45.63z"/>
<path fill="#A99C88" d="M209.311,54.67c2.609-2.46,15.739-3.12,10.129,1.17c-3.239,0.59-0.14,3.75,1.681,3.98
	c3.38,2.82,11.149,9.56,3.54,11.71c-1.18-1.48-2.381-2.97-3.891-4.12c-3.24-2.68-7.77-2.04-11.5-3.63c7.701-0.16,0.9-1.07-1.59-4.03
	C208.24,58.06,208.76,56.36,209.311,54.67z"/>
<path fill="#C2BCAC" d="M221.12,59.82c-1.82-0.23-4.92-3.39-1.681-3.98c5.881,1.32,13.11,2.58,15.971,8.69
	c1.08,5.76,7.15,8.74,5.85,15.01c-5.1-3.87-15.39-0.6-16.6-8.01C232.27,69.38,224.5,62.64,221.12,59.82z"/>
<path fill="#887F2A" d="M206.65,64.56c0.629-1.46-1.09-7.74,1.029-4.81c2.49,2.96,9.291,3.87,1.59,4.03
	C207.01,63.19,206.34,69.19,206.65,64.56z"/>
<path fill="#A89888" d="M187.471,60.64c4.409-1.66,9.049-0.43,13.489,0.31c1.521,3.2,6.979,7.4,0.37,7.32
	c-0.561,0.28-1.68,0.84-2.24,1.12c-4.79,1.48-9.64,3.08-13.9,5.78c-2.81,1.86-4.049,6.49-8.66,4.32
	c-0.25-4.19,2.851-9.07,0.281-12.67C179.95,64.13,184.391,63.49,187.471,60.64z"/>
<path fill="#C1B7A6" d="M173.95,62.64c4.34,0.29,8.62-2.93,13.521-2c-3.08,2.85-7.521,3.49-10.66,6.18
	c2.569,3.6-0.531,8.48-0.281,12.67c4.611,2.17,5.851-2.46,8.66-4.32c4.261-2.7,9.11-4.3,13.9-5.78c1.9,6.36,11.66,5.37,13.45,12.33
	c-2.351-0.08-6.63-2.67-6.229,1.44c-1.201-0.59-2.42-1.21-3.801-0.93c-0.22-2.81-1.699-5.27-3.4-7.44
	c-7.859-0.17-15.299,3.86-20.569,9.54c-6.53,3.85-6.59-2.5-6.09-7.97c-0.32-4.49-0.841-9.09,0.84-13.39L173.95,62.64z"/>
<path fill="#7B5546" d="M274.471,63.44c6.6-3.59,8.469,5.03,9.529,9.73c0.15,4.29-0.391,8.68-3.15,12.08
	c-6.02,1.76-9.35-2.66-10.64-8.08c1-4.03,3.25-7.69,3.7-11.86C274.05,64.84,274.33,63.91,274.471,63.44z"/>
<path fill="#AD8D7F" d="M273.91,65.31c-0.45,4.17-2.7,7.83-3.7,11.86c-0.51,1.81-0.89,3.65-1.31,5.47
	c-0.271-3.33,0.07-6.68,0.709-9.94C271.04,70.23,272.45,67.76,273.91,65.31z"/>
<path fill="#BDB8A5" d="M212.43,74.52c5.23,2.01,12.76,1.59,13.86,8.69c-2.851,1.12-5.8,2.48-8.931,1.73
	c0.25,5.09,4.07,2.24,7.011,0.99c7.45,1.37,9.3,9.13,13.13,14.07c-1.4,2.38-3.33,4.36-5.061,6.49c-2.719-1.03-8.729-5.55-8.819-0.13
	c0.12,7.23-6.7-1.68-9.81-3.02c-1.11-4.2-1.931-8.5-2.4-12.82c1.99,0.8,4.02,1.52,6.1,2.05c-1.439-2.67-1.18-7.31-5.029-7.46
	c0.22-0.86,0.39-1.73,0.549-2.6C218.189,83.08,210.52,77.64,212.43,74.52z"/>
<path fill="#936450" d="M268.9,82.64c0.42-1.82,0.8-3.66,1.31-5.47c1.29,5.42,4.62,9.84,10.64,8.08c-1.939,8.48-8,15.31-9.629,23.82
	c-1.701,1.89-2.111,4.38-2.011,6.84c-1.04,2.18-2.11,4.36-2.771,6.7c-0.979-5.11-6.279,4.74-6.209-1.28
	c1.33-3.98-3.381-2.86-6.041-3.61c1.69-0.27,5.061-0.81,6.75-1.08c0.601-2.29,1.09-4.59,1.701-6.87c4.33-6.86,5.76-15.42,5.33-23.44
	C268.3,85.1,268.641,83.88,268.9,82.64z"/>
<path fill="#AB7D70" d="M206.311,83.16c-0.4-4.11,3.879-1.52,6.229-1.44l0.489,0.79c-0.159,0.87-0.329,1.74-0.549,2.6
	c-0.871,1.67-1.291,3.53-1.07,5.41c0.47,4.32,1.29,8.62,2.4,12.82c-1.15,0.83-2.33,1.63-3.511,2.42c-5.51,2.53-3.93-5.29-5.69-8.51
	c-0.299-2.32-0.619-4.64-0.979-6.94c-0.39-2.69-0.93-5.37-1.12-8.08C203.891,81.95,205.109,82.57,206.311,83.16z"/>
<path fill="#B18978" d="M267.971,86.33c0.43,8.02-1,16.58-5.33,23.44c0.609-4.17,2.229-8.11,2.869-12.27
	C266.15,93.74,266.71,89.94,267.971,86.33z"/>
<path fill="#DADACB" d="M189.13,104.71c5.25-4.49,7.44-12.16,14.5-14.4c0.36,2.3,0.681,4.62,0.979,6.94
	C198.34,97.28,196.32,105.72,189.13,104.71z"/>
<path fill="#C2C3B0" d="M239.37,97.85c7.851-4.5,18.229-4.94,26.14-0.35c-0.64,4.16-2.26,8.1-2.869,12.27
	c-0.611,2.28-1.101,4.58-1.701,6.87c-2.33-5.08-10.449,0.46-14.789-1.79c4.649-1.74,9.85-3.82,12.75-7.97
	c2.72-4.99-8.11-2.2-7.381-7.17c2.061-1.13,4.28-1.91,6.34-3.05C251.59,95.53,245.52,97.7,239.37,97.85z"/>
<path fill="#B2A693" d="M239.37,97.85c6.149-0.15,12.22-2.32,18.489-1.19c-2.06,1.14-4.279,1.92-6.34,3.05
	c-0.729,4.97,10.101,2.18,7.381,7.17c-2.9,4.15-8.101,6.23-12.75,7.97c-5.98-2.34-8.4-1.17-4.17,2.72c3.709,5.55,5,12.26,8.41,17.99
	c-2.261,5.23-8.24,9.71-8.031,16.04l-0.069,1.02c-1.67-0.24-3.34-0.49-4.979-0.82c-5.391-3.21-6.711-9.93-9.36-15.18
	c-1.729-4.26-3.29-9.02-7.79-11.13c8.15-1.5-4.689-3.73-0.439-7.9c4.26-0.67,3.77,6.61,8.59,5.91c3.06-2.7,1.689-5.93-0.48-8.64
	c2.27-0.91,6.33-2.34,5.18-5.48c-0.14-0.72-0.43-2.16-0.57-2.89c1.73-2.13,3.66-4.11,5.061-6.49c0.32-0.54,0.95-1.62,1.27-2.16
	L239.37,97.85z"/>
<path fill="#C2BDAC" d="M189.13,104.71c7.19,1.01,9.21-7.43,15.479-7.46c1.761,3.22,0.181,11.04,5.69,8.51
	c4.21,5.77,9.29,8.56,15.97,6.12c2.631,1.27,5.061-0.59,6.74-2.5c1.15,3.14-2.91,4.57-5.18,5.48c2.17,2.71,3.54,5.94,0.48,8.64
	c-4.82,0.7-4.33-6.58-8.59-5.91c-4.25,4.17,8.59,6.4,0.439,7.9c-3.41-2.11-6.54-4.63-9.76-7c-3.01-3.63-5.17-9.11-11.211-7.67
	C195.27,110.88,186.65,110.48,189.13,104.71z"/>
<path fill="#DEDBCD" d="M213.811,103.34c3.109,1.34,9.93,10.25,9.81,3.02c4.021,0.69,8.11,2.84,2.649,5.52
	c-6.68,2.44-11.76-0.35-15.97-6.12C211.48,104.97,212.66,104.17,213.811,103.34z"/>
<path fill="#AEA957" d="M223.62,106.36c0.09-5.42,6.101-0.9,8.819,0.13c0.141,0.73,0.431,2.17,0.57,2.89
	c-1.68,1.91-4.109,3.77-6.74,2.5C231.73,109.2,227.641,107.05,223.62,106.36z"/>
<path fill="#C9D0BF" d="M269.21,115.91c-0.101-2.46,0.31-4.95,2.011-6.84C273.5,111.78,271.96,114.45,269.21,115.91z"/>
<path fill="#E0DDCF" d="M241.98,117.57c-4.23-3.89-1.811-5.06,4.17-2.72c4.34,2.25,12.459-3.29,14.789,1.79
	c-1.689,0.27-5.06,0.81-6.75,1.08c-0.439-0.11-1.34-0.32-1.779-0.42c-2.33-1.54-4.62-1.77-6.891-0.7
	c-0.47,0.05-1.41,0.15-1.879,0.19C243.221,116.99,242.391,117.37,241.98,117.57z"/>
<path fill="#C4C2AC" d="M241.98,117.57c0.41-0.2,1.24-0.58,1.66-0.78c4.279,10.9,16.369,26.69,1.649,34.72
	c-0.729,0.02-2.2,0.06-2.931,0.09c-0.209-6.33,5.771-10.81,8.031-16.04C246.98,129.83,245.689,123.12,241.98,117.57z"/>
<path fill="#959383" d="M245.52,116.6c2.271-1.07,4.561-0.84,6.891,0.7C250.061,118.52,247.77,118.29,245.52,116.6z"/>
<path fill="#362816" d="M210.4,118.49c3.22,2.37,6.35,4.89,9.76,7c4.5,2.11,6.061,6.87,7.79,11.13c-1.771,0.84-2.46-1.76-3.671-2.56
	C219.3,129.21,213.09,125.23,210.4,118.49z"/>
<path fill="#3F2B15" d="M260.23,121.33c-0.07,6.02,5.229-3.83,6.209,1.28c-0.479,3.1-0.51,6.92-3.899,8.29
	C257.689,130.04,259.9,124.71,260.23,121.33z"/>
<path fill="#28230D" d="M256.25,164.59c2.84-10.22,0.971-21.4,4.21-31.43c0.47,0.14,1.399,0.43,1.87,0.57
	c-1.59,11.37-3.53,22.86-2.471,34.37c3.341,6.86,7.381,13.36,11.601,19.71c2.271,5.12,5.851,9.48,8.229,14.5
	c-3.569,2.149-7.619,3.319-11.219,5.41c-1.311-1.221-2.57-2.5-3.951-3.631c-19.06-4.57-38.67-4.12-58.1-3.63
	c0.689-1.28,1.359-2.57,2-3.88c10.721-0.16,21.43,0,32.15-0.1c-2.08-1.98-4.221-3.9-6.26-5.9c0.35-0.54,1.06-1.64,1.41-2.18
	c6.579,8.52,16.159,11.96,26.779,12.2c-10.52-9.51-17.24-22.16-26.01-33.13c-1.49-1.29,0.029-2.77,0.85-3.9
	c3.11,2.25,3.439-0.5,3.52-3.31c5.371,12.44,9.611,25.51,19.591,35.28c2.69,6.229,9.05,7.16,15.159,6.97
	c-8.049-18.33-20.59-34.55-33.319-49.89l0.069-1.02c0.73-0.03,2.201-0.07,2.931-0.09C248.859,155.93,252.391,160.41,256.25,164.59z"
	/>
<path fill="#91704D" d="M226.859,145.34c-0.869-3.74-2.659-7.38-2.58-11.28c1.211,0.8,1.9,3.4,3.671,2.56
	c2.649,5.25,3.97,11.97,9.36,15.18c1.5,3.21,4.16,10.68,0.029,11.77C232.09,158.62,229.15,152.09,226.859,145.34z"/>
<path fill="#AF9B84" d="M330.12,151.5c8.74-6.85,15.72-18.05,28.54-15.84c-5.34,3.09-11.33,4.74-16.93,7.04
	C339.69,146.7,334.68,156.44,330.12,151.5z"/>
<path fill="#8C6851" d="M358.66,135.66c2.729,0.56,0.51,4.42,0.82,6.38c-1.671,8.2-9.801,10.71-17.351,11.14
	c-4.26,3.77-10.689,9.04-13.939,10.5l0.39,0.72c-1.34,0.19-2.65,0.41-3.97,0.64c-2.25,0.45-3.83-0.13-3.561-2.76
	c0.13-0.43,0.391-1.3,0.53-1.73c3.37-2.49,5.72-6.01,8.54-9.05c4.56,4.94,9.57-4.8,11.61-8.8
	C347.33,140.4,353.32,138.75,358.66,135.66z"/>
<path fill="#D0D4C2" d="M169.34,149.4c3.141,1.17,6.61-0.1,9.58,0.14c-4.699,4.77-11.12,0.05-16.79,2.6
	c1.729-1.13,3.62-1.97,5.521-2.77C168.07,149.38,168.92,149.39,169.34,149.4z"/>
<path fill="#B3B2A2" d="M178.92,149.54c5.35,2.95,10.09,8.58,6.939,15.18c-0.08-0.77-0.219-2.32-0.289-3.09
	c-4.041,2.53-9.49,7.87-14.1,3.99c-1.941,4.94-5.58-0.22-8.9,1.89c-2.711,1.39-3.48,4.82-5.01,7.27c0.08-5.16,0.41-10.31,0.27-15.47
	c0.65-2.73,1.5-5.92,4.3-7.17C167.8,149.59,174.221,154.31,178.92,149.54z"/>
<path fill="#CBC9B9" d="M157.83,159.31c0.141,5.16-0.189,10.31-0.27,15.47c1.529-2.45,2.299-5.88,5.01-7.27
	c3.32-2.11,6.959,3.05,8.9-1.89c4.609,3.88,10.059-1.46,14.1-3.99c0.07,0.77,0.209,2.32,0.289,3.09
	c-1.09,4.77-4.489,8.56-6.33,13.03c9.931-7.69,26.75-1.2,28.351,11.5c-1.409,5.12-12.819,8.45-4.28,12.23
	c-7.83,1.831-16.26,0.02-23.99-1.99c0.65,1.67,1.361,3.32,2.051,4.99c-2.02-1.86-3.53-4.161-5.391-6.15
	c5.69-3.59,12.67-4.08,18.94-6.24c2.16-5.05-2.42-10.58,1.33-15.44c-7.59-2.16-16.36-0.98-20.149,6.87
	c-5.19,0.5-8.391,4.01-7.48,9.04c-2.41-1.81-4.9-3.5-7.4-5.16c-3.699-3.6-4.24-9.34-8.029-12.95c0.41,0.1,1.229,0.3,1.64,0.41
	c4.159,2.24,0.43-6.29,1.12-8.54c-0.03-0.4-0.08-1.19-0.11-1.58C156.721,162.94,157.33,161.14,157.83,159.31z"/>
<path fill="#B7B294" d="M287.7,159.65c4,0.59,8.021-0.49,12.02,0.52c-11.819,0.9,9.38,1.38,6.98,5.36
	c-5.021,0.54-18.761-1.25-15.24,7.77c-5.37-2.92-7.851,0.99-7.37,5.48c-0.779-2.97-0.88-6.12-0.561-9.16
	C284.62,166.19,291.279,163.39,287.7,159.65z"/>
<path fill="#CCCAB8" d="M306.7,165.53c2.399-3.98-18.8-4.46-6.98-5.36c2.181,0.32,4.29,0.97,6.42,1.51c1.86,1.2,3.83,2.28,5.49,3.76
	c0.04,3.1,0.46,6.14,0.96,9.21c2.391-1.89,4.63-3.95,6.9-5.99c1.66-1.27,3.37-2.47,5.12-3.62c1.319-0.23,2.63-0.45,3.97-0.64
	c1.72,0.05,3.43,0.12,5.16,0.25c-7.66,2.5-14.601,6.97-19.811,13.16c-0.21,3.47-0.06,7.36-2.699,10.01
	c-1.57-1.05-3.061-2.23-4.66-3.22c-3.28,4.06-4.021,9.48-6.92,13.77c-2.49-1.48-5.771-2.25-8.391-0.7
	c-7.75,3.6-14.75,9.28-23.32,10.82l0.531-0.77c3.6-2.091,7.649-3.261,11.219-5.41c4.82-2.88,9.971-5.161,14.84-7.96
	c-3.619-4.15-7.909-7.99-9.899-13.27c-0.14-0.58-0.399-1.73-0.54-2.3c-0.48-4.49,2-8.4,7.37-5.48
	C287.939,164.28,301.68,166.07,306.7,165.53z"/>
<path fill="#3D2B11" d="M319.49,168.66c0.359-2.16,0.88-4.3,1.56-6.38c-0.27,2.63,1.311,3.21,3.561,2.76
	C322.86,166.19,321.15,167.39,319.49,168.66z"/>
<path fill="#A8A18E" d="M328.19,163.68c5.72-0.34,12.77,1.93,16.14,6.67c0.87,16.11-20.88,12.59-27.98,22.56
	c-1.85-0.38-3.39-3.62-5.119-5.09c2.64-2.65,2.489-6.54,2.699-10.01c5.21-6.19,12.15-10.66,19.811-13.16
	c-1.73-0.13-3.44-0.2-5.16-0.25L328.19,163.68z"/>
<path fill="#C6C3B2" d="M138.66,168.45c6.26-2.75,10.36,2.61,14.82,6c-3.48-0.6-8.32-6.51-11.24-2.22
	c-1.53,2.66,1.55,7.32-2.64,8.33c-2.44,3.4-1.19,8.92,3.1,10.47c4.97-1.89,10.45-5.35,15.8-2.73c-0.01,4.84,6.25,3.29,7.45,7.46
	c-4.47,1.89-8.431-4.39-13.33-3.28c-6.14,3.21-21.5,8.9-13.44,17.76c9.78-2.471,2.31,9.949,0.19,14.16
	c-2.24,1.959-1.64-0.041-1.19-1.86c0.59-5.04-1.24-11.45-5.71-14.25c-0.4-5.7,3.49-10.7,8.92-12.13c-1.71-2.12-3.74-3.97-5.53-6
	c-4.75-4.17,0.4-10.39-0.42-15.68C135.99,172.23,137.23,170.25,138.66,168.45z"/>
<path fill="#AFA599" d="M142.24,172.23c2.92-4.29,7.76,1.62,11.24,2.22c3.789,3.61,4.33,9.35,8.029,12.95
	c-1.01,0.29-2.01,0.59-3.01,0.9c-5.35-2.62-10.83,0.84-15.8,2.73c-4.29-1.55-5.54-7.07-3.1-10.47
	C143.79,179.55,140.71,174.89,142.24,172.23z"/>
<path fill="#BDB6A3" d="M316.35,192.91c7.101-9.97,28.851-6.45,27.98-22.56c3.26,10.64-8.8,18.68-15.76,24.7
	c2.279,1.11,4.46,2.44,6.26,4.26c-4.08-1.78-8.11-3.76-12.54-1.63c-2.69-0.65-5.45-0.84-7.98,0.44c-1.51,0.13-3.01,0.2-4.51,0.21
	c-2.62-3.5-6.76-0.09-10.149,0.04c2.899-4.29,3.64-9.71,6.92-13.77c1.6,0.99,3.09,2.17,4.66,3.22
	C312.96,189.29,314.5,192.53,316.35,192.91z"/>
<path fill="#A59368" d="M221.391,179.5c-0.551-6.63,9.6-6.36,9.17-0.16C227.49,178.83,224.359,178.39,221.391,179.5z"/>
<path fill="#B7B3A1" d="M176.391,183.52c3.789-7.85,12.56-9.03,20.149-6.87c-3.75,4.86,0.83,10.39-1.33,15.44
	c-6.271,2.16-13.25,2.65-18.94,6.24c-0.5-0.2-1.5-0.6-2-0.8c-1.1-6.85,10.16-8.78,11.201-14.84
	C182.98,180.08,179.311,183.19,176.391,183.52z"/>
<path fill="#634B27" d="M221.391,179.5c2.969-1.11,6.1-0.67,9.17-0.16c-0.15,3.94,1.89,7.06,5.16,9.06
	c-0.351,0.54-1.061,1.64-1.41,2.18C229.24,188.48,220.74,186.58,221.391,179.5z"/>
<path fill="#A09581" d="M176.391,183.52c2.92-0.33,6.59-3.44,9.08-0.83c-1.041,6.06-12.301,7.99-11.201,14.84
	c0.28,2.61,2.17,6.25-0.729,8.031c-3.53,2.689-7.261-2-11.069-0.211c-2.91,1.2-0.771-2.47-1.011-3.939
	c-5.72,0.09-8.36,6.74-13.09,8.949c-3.12,1.291-0.7-2.84-1.03-4.459c-2.37-0.57-4.69-1.34-6.75-2.641c2.49-2.39,6.06-4.98,9.03-1.83
	c4.8-1.44-0.44-6.14,3-8.95c4.899-1.11,8.86,5.17,13.33,3.28c1.399-0.61,2.14-2,2.96-3.2C168,187.53,171.2,184.02,176.391,183.52z"
	/>
<path fill="#968333" d="M158.5,188.3c1-0.31,2-0.61,3.01-0.9c2.5,1.66,4.99,3.35,7.4,5.16c-0.82,1.2-1.561,2.59-2.96,3.2
	C164.75,191.59,158.49,193.14,158.5,188.3z"/>
<path fill="#B5B395" d="M207.88,189.25c0.31,2.43-0.14,4.93,0.54,7.33c-0.641,1.31-1.311,2.6-2,3.88
	c-0.939,0.34-1.88,0.68-2.82,1.02C195.061,197.7,206.471,194.37,207.88,189.25z"/>
<path fill="#ABA593" d="M139.18,210.24c-8.06-8.86,7.3-14.55,13.44-17.76c-3.44,2.81,1.8,7.51-3,8.95
	c-2.97-3.15-6.54-0.56-9.03,1.83c2.06,1.301,4.38,2.07,6.75,2.641c0.33,1.619-2.09,5.75,1.03,4.459
	c4.729-2.209,7.37-8.859,13.09-8.949c0.24,1.47-1.899,5.14,1.011,3.939c3.809-1.789,7.539,2.9,11.069,0.211
	c2.899-1.781,1.01-5.42,0.729-8.031c0.5,0.2,1.5,0.6,2,0.8c1.86,1.99,3.371,4.29,5.391,6.15c1.859,3.25,3.77,6.549,4.779,10.189
	c-7.39-1.41-15.489-2.939-21.799-6.68c-5.781,2.029-9.801,6.76-12.67,11.949c-2.681,1.051-3.891,2.851-2.511,5.631
	c-3.39-0.12-6.74-0.711-10.09-1.17C141.49,220.189,148.96,207.77,139.18,210.24z"/>
<path fill="#71362A" d="M377.75,194.55c1.14-0.05,2.29-0.1,3.44-0.14c0.18,0.71,0.529,2.13,0.71,2.84
	c-1.351,8.641-9.71,14.57-6.271,24.2c0.14,1.63,0.15,3.271-0.02,4.899c-1.431,0.78-2.86,1.561-4.271,2.36
	c-2.1-2.95-3.03-6.51-5.03-9.51c0.11-1.56,0.2-3.13,0.28-4.69c4.4,2.09,2.42-7.52,4.28-10.67c0-5.24,6.72-4.09,8.61-7.45
	c-0.551-0.32-1.66-0.96-2.211-1.27L377.75,194.55z"/>
<path fill="#D5B0AD" d="M369.12,197.36c2.57-1.2,5.33-1.9,8.149-2.24c0.551,0.31,1.66,0.95,2.211,1.27
	c-4.311,0.43-7.961,3.34-12.311,3.43C367.79,198.98,368.44,198.16,369.12,197.36z"/>
<path fill="#B3A695" d="M291.26,197.67c2.62-1.55,5.9-0.78,8.391,0.7c3.39-0.13,7.529-3.54,10.149-0.04
	c-3.83-0.8-5.55,1.31-3.34,4.65c0.37,3.02-1.91,5.129-3.51,7.379c-8.54-1.979-16.729,2.791-24.091,6.42
	c1.82,4.351-1.439,7.961-5.639,5.5c-0.701-1.27-1.301-2.68-2.82-3.139l0.529-0.4c2.041-1.42,3.881-3.11,5.66-4.85
	c-1.561-0.551-4.04-0.08-4.24-2.281c9.881,2.931,18.34-5.139,27.21-8.239C299.25,199.58,293.84,199.66,291.26,197.67z"/>
<path fill="#99907A" d="M314.31,198.12c2.53-1.28,5.29-1.09,7.98-0.44c2.49,1.32,6.7,5.11,2.18,6.759
	c-4.77,1.08-1.89,5.891-1.939,9.16c-2.2-0.22-4.21-1.17-6.261-1.91c0.461,6.561,8.9,5.25,11.211,9.891
	c0.17,5.43-5.07,0.529-7.86,0.96c-4.82,2.03-9.36,5.069-12.62,9.2c-1.68-2.7-2.97-5.61-4.29-8.48c-0.36-1.279-0.72-2.55-1.1-3.81
	c-0.25-0.56-0.73-1.681-0.971-2.24c1.16-2.14,1.86-4.47,2.311-6.851c1.6-2.25,3.88-4.359,3.51-7.379
	C308.15,200.28,320.55,199.77,314.31,198.12z"/>
<path fill="#ABA08C" d="M322.29,197.68c4.43-2.13,8.46-0.15,12.54,1.63c2.32,1.6,4.47,3.43,6.66,5.23
	c1.34,6.09,1.359,12.39,0.24,18.51c-1.69,8.54-11.011-3.88-9.271,4.29c-0.49,1.95-1.15,3.86-1.54,5.83
	c1.79,1.141,4.35,1.75,4.89,4.12c-2.43-0.601-4.779-1.729-7.319-1.62c-1.73,0.71-5.521,3.27-2.65,0.15c4.91-3.85-1.82-9.92-6.2-6.26
	c-2.34,3.209-7.35,2.58-9.22,6.189c-1.27-1.221-2.55-2.471-3.42-4.01c3.26-4.131,7.8-7.17,12.62-9.2c2.79-0.431,8.03,4.47,7.86-0.96
	c-2.311-4.641-10.75-3.33-11.211-9.891c2.051,0.74,4.061,1.69,6.261,1.91c0.05-3.27-2.83-8.08,1.939-9.16
	C328.99,202.79,324.78,199,322.29,197.68z"/>
<path fill="#955E55" d="M367.17,199.82c4.35-0.09,8-3,12.311-3.43c-1.891,3.36-8.61,2.21-8.61,7.45
	c-1.86,3.15,0.12,12.76-4.28,10.67c-0.22-1.68-0.49-3.34-0.79-4.99c0.48-2.609,0.271-5.279,0.29-7.899
	C366.36,201.17,366.9,200.27,367.17,199.82z"/>
<path fill="#A08E82" d="M267.939,208.49c8.57-1.54,15.57-7.22,23.32-10.82c2.58,1.99,7.99,1.91,8.3,5.7
	c-8.87,3.101-17.329,11.17-27.21,8.239C270.79,210.689,268.91,210.13,267.939,208.49z"/>
<path fill="#887020" d="M306.46,202.98c-2.21-3.34-0.49-5.451,3.34-4.65c1.5-0.01,3-0.08,4.51-0.21
	C320.55,199.77,308.15,200.28,306.46,202.98z"/>
<path fill="#5D341F" d="M341.49,204.54c0.93-0.3,1.88-0.59,2.83-0.87c0.58,2.65,3.06,4.23,3.819,6.82
	c-1.33,7.5-0.319,15.3-2.819,22.609c-2.87,5.44,6.97,7.391,10.34,8.18c-7.021,0.781-15.08,2.551-20.51,7.41
	c-2.021-4.489-2.42-9.93-6.66-13.02c2.54-0.109,4.89,1.02,7.319,1.62c-0.54-2.37-3.1-2.979-4.89-4.12c0.39-1.97,1.05-3.88,1.54-5.83
	c3.57-1.22,6.22,2.52,9.021,4.12c0.84-2.71,0.96-5.67,0.25-8.41C342.85,216.93,342.83,210.63,341.49,204.54z"/>
<path fill="#C3BAAB" d="M164.641,207.99c6.31,3.74,14.409,5.27,21.799,6.68c2.42,7.18,13.82,0.689,19.301,3.07
	c-5.29,2.109-14.301-1.391-18.12,1.789c-0.24,2.041-0.431,4.091-0.81,6.111c-1.67,1.75-3.291,3.619-5.44,4.799
	c4.51-8.39-7.2-15.609-14.56-13.67c-3.881,0.881-2.49,5.92-3.58,8.881c-1.74-2.33-2.08-5.4-1.971-8.23
	c-3.5,3.25-6.82,7.25-11.8,8.15c-1.38-2.78-0.17-4.58,2.511-5.631C154.84,214.75,158.859,210.02,164.641,207.99z"/>
<path fill="#A4A88F" d="M132.47,208.29c4.47,2.8,6.3,9.21,5.71,14.25c-1.12-1.79-2.31-3.53-3.41-5.33
	C133.83,214.29,132.29,211.45,132.47,208.29z"/>
<path fill="#CDC6B2" d="M267.029,214.439c-0.489-2.09-0.879-4.359,0.91-5.949c0.971,1.64,2.851,2.199,4.41,3.119
	c0.2,2.201,2.68,1.73,4.24,2.281c-1.779,1.739-3.619,3.43-5.66,4.85C269.51,217.41,268.221,215.96,267.029,214.439z"/>
<path fill="#C4BFAD" d="M278.859,216.779c7.361-3.629,15.551-8.399,24.091-6.42c-0.45,2.381-1.15,4.711-2.311,6.851
	c-0.58,0.351-1.729,1.06-2.31,1.41c-6.221,4.5-14.49,11.8-22.5,6.79c-0.74-0.721-1.48-1.45-2.2-2.18l-0.409-0.951
	C277.42,224.74,280.68,221.13,278.859,216.779z"/>
<path fill="#1D1C09" d="M364.77,209.51l1.03,0.01c0.3,1.65,0.57,3.311,0.79,4.99c-0.08,1.561-0.17,3.131-0.28,4.69
	c-1.069,7.399-4.97,15.51-2.439,22.89c5.67,3.49,11.42,7.01,17.57,9.62c-3.74-7.51-7.12-15.17-10.101-23
	c1.41-0.8,2.84-1.58,4.271-2.36c4.779,1.28,6.79,6.131,9.739,9.69c2.801,4.29,6.17,8.13,9.881,11.66c-0.4,1.31-0.53,3.55-2.45,2.569
	c-5.471-5.58-10.05-12.06-16.29-16.869c1.62,7.369,5.71,13.869,8.83,20.66c4.569,3.869,10.279,6.189,15.18,9.66v5.809
	c-2.33-1.459-4.72-2.819-7.19-3.989c0.011,4.33,4.341,6.601,6.2,10.08c0.58,3.28-3.189,5.11-4.55,7.69
	c-2.72,2.739-5.76,5.299-9.44,6.58c-0.819-0.801-1.6-1.621-2.359-2.461c3.64-0.979,6.81-3.09,9.47-5.72
	c-5.899-1.06-12.08-1.86-17.91-0.05c-0.359-0.301-1.09-0.881-1.45-1.17c7.86-1.86-3.67-4.93-6.6-5.09c1.05,2.16,2,4.459-0.15,6.31
	c-3.569-7.97-11.25-8.78-19-9.29c-0.409-0.9-0.819-1.79-1.229-2.68c3.69,1.1,7.51,1.59,11.37,1.74c-1.16-3.01-3.74-5.16-5.44-7.84
	c2.271-1.07,4.67-1.871,7.11-2.49c6.56,5.3,10.99,14.01,20.27,14.789c5.561,0.44,11.351,2.94,16.891,1.44
	c-4.25-9.351-10.45-18.819-20.79-22.17c-3.01-1.61-6.07-3.069-9.01-4.78c-2.57-2.59-4.761-5.689-7.91-7.609
	c-0.98-0.66-2.021-1.17-3.12-1.541c-3.37-0.789-13.21-2.739-10.34-8.18c4.779,1.67,8.739,5.98,13.92,6.36
	C361.58,229.58,363.67,219.62,364.77,209.51z"/>
<path fill="#312914" d="M253.77,225.73c5.121-2.881,8.23-8.25,13.26-11.291c1.191,1.521,2.48,2.971,3.9,4.301l-0.529,0.4
	c-13.641,0.439-19.971,16.06-22.521,27.529c-0.271-0.58-0.819-1.74-1.09-2.311C248.74,238.109,249.76,231.26,253.77,225.73z"/>
<path fill="#CFCCBE" d="M166.811,216.77c7.359-1.939,19.069,5.28,14.56,13.67c-6.79,5.15-14.94,3.141-18.14-4.789
	C164.32,222.689,162.93,217.65,166.811,216.77z"/>
<path fill="#B98D76" d="M205.74,217.74c1.109-0.131,2.22-0.27,3.33-0.43c0.619,0.369,1.859,1.109,2.49,1.479
	c-6.57,5.3-15.84-1.569-23.94,0.739C191.439,216.35,200.45,219.85,205.74,217.74z"/>
<path fill="#2E280D" d="M224.15,219.2c12.01-2.729,24.5-1.54,36.709-1.55c-7.83,4.41-18.85,1.02-27.68,3.5
	c-7.859-0.271-15.01,5.27-22.88,2.58c3.05,0.47,0.72-3.301,3.2-3.78C217.16,216.76,220.38,221.529,224.15,219.2z"/>
<path fill="#1B1409" d="M298.33,218.62c0.58-0.351,1.729-1.06,2.31-1.41c0.24,0.56,0.721,1.681,0.971,2.24
	C300.3,219.9,299.21,219.62,298.33,218.62z"/>
<path fill="#946049" d="M211.561,218.79c0.64,0.38,1.289,0.771,1.939,1.16c-2.48,0.479-0.15,4.25-3.2,3.78
	c-2.21-0.051-4.26,0.789-6.25,1.649c-5.75,0.13-11.5,0.11-17.239,0.261c0.379-2.021,0.569-4.07,0.81-6.111
	C195.721,217.221,204.99,224.09,211.561,218.79z"/>
<path fill="#2C2910" d="M273.63,223.23c0.72,0.729,1.46,1.459,2.2,2.18c-10.5,9.449-20.98,20.97-25.801,34.26
	c-0.67-0.07-1.989-0.21-2.659-0.27c1.69-4.271,3.8-8.36,6.5-12.08C259.87,238.83,267.12,231.33,273.63,223.23z"/>
<path fill="#786E56" d="M302.71,223.26c1.32,2.87,2.61,5.78,4.29,8.48c0.87,1.539,2.15,2.789,3.42,4.01
	c-0.75,2.061-1.97,3.891-3.34,5.58c-0.42,0.279-1.271,0.82-1.69,1.09c-1.01,1.51-0.47,4.71-3.1,3.52
	C301.1,238.46,302.02,230.74,302.71,223.26z"/>
<path fill="#716536" d="M332.46,227.34c-1.74-8.17,7.58,4.25,9.271-4.29c0.71,2.74,0.59,5.7-0.25,8.41
	C338.68,229.859,336.03,226.12,332.46,227.34z"/>
<path fill="#91856E" d="M246.77,233.7c1.28-3.479,3.32-6.47,7-7.97c-4.01,5.529-5.029,12.379-6.979,18.629
	c-1.681-1.699-3.95-2.09-6.25-2.029C242.77,239.57,244.74,236.609,246.77,233.7z"/>
<path fill="#C1BCAB" d="M319.64,229.561c4.38-3.66,11.11,2.41,6.2,6.26c-2.87,3.119,0.92,0.56,2.65-0.15
	c4.24,3.09,4.64,8.53,6.66,13.02c0.239,1.82,0.439,3.65,0.689,5.471c-1.58,5.63-7.25,7.59-9.67,12.41
	c-0.35-0.1-1.05-0.28-1.39-0.381c-4.811-4.209-10.12,3.931-15.33,0.36c-4.28-0.88,2.78-5.659-0.87-7.11
	c-3.93,0.371-10.07-6.629-9.24,0.931c-3.49-1.53-10.15-6.44-8.619,2.18c-1.221-2.86-3.881-5.479-3.15-8.829
	c6.17-5.49,14.109,1.119,20.12,3.75c-1.851-3.82-4.311-7.4-5.4-11.531c2.63,1.19,2.09-2.01,3.1-3.52
	c-0.409,9.73,11.86,14.79,19.851,10.99c-0.49-3.58-1.07-7.141-2.09-10.6c-4.761-4.82-13.771,7.199-16.07-1.48
	c1.37-1.689,2.59-3.52,3.34-5.58C312.29,232.141,317.3,232.77,319.64,229.561z"/>
<path fill="#312A1A" d="M232.73,245.561c4.52-4.131,9.189-8.11,14.039-11.86c-2.029,2.909-4,5.87-6.229,8.63
	c-4.681,4.141-8.12,9.37-11.899,14.279c-0.601-1.989-0.83-4.08,0.35-5.899C230.43,249.141,231.76,247.46,232.73,245.561z"/>
<path fill="#B4AE9C" d="M305.39,242.42c0.42-0.27,1.271-0.811,1.69-1.09c2.3,8.68,11.31-3.34,16.07,1.48
	c1.02,3.459,1.6,7.02,2.09,10.6C317.25,257.21,304.98,252.15,305.39,242.42z"/>
<path fill="#DED7C3" d="M335.15,248.689c5.43-4.859,13.489-6.629,20.51-7.41c1.1,0.371,2.14,0.881,3.12,1.541
	c-3.23,0.369-6.66-0.881-9.69,0.5C344.54,245.34,339.84,247.01,335.15,248.689z"/>
<path fill="#C1A49A" d="M240.54,242.33c2.3-0.061,4.569,0.33,6.25,2.029c0.271,0.57,0.819,1.73,1.09,2.311l-0.18,0.83
	c-3.96-1.84-6.13,2.891-9.31,4.41C236.359,248.48,239.41,245.439,240.54,242.33z"/>
<path fill="#BAAB9B" d="M349.09,243.32c3.03-1.381,6.46-0.131,9.69-0.5c3.149,1.92,5.34,5.02,7.91,7.609
	c1.05,5.24-1.91,10.5-7.36,10.721c-2.44,0.619-4.84,1.42-7.11,2.49c-2.76,1.26-5.3,2.949-7.779,4.67
	c-2.71,0.729-5.5,1.1-8.101,2.119c-1.05-1.6-1.979-3.279-3.09-4.83c-2.37,0.53-4.67,2.291-7.08,0.971
	c2.42-4.82,8.09-6.78,9.67-12.41c1.9,3.109,2.641,9.1,7.521,8.311c4.479-3.281,9.47-5.391,15.06-6.201
	C358.78,250.66,354.09,245.439,349.09,243.32z"/>
<path fill="#AD998C" d="M335.15,248.689c4.689-1.68,9.39-3.35,13.939-5.369c5,2.119,9.69,7.34,9.33,12.949
	c-5.59,0.811-10.58,2.92-15.06,6.201c-4.88,0.789-5.62-5.201-7.521-8.311C335.59,252.34,335.39,250.51,335.15,248.689z"/>
<path fill="#A7988A" d="M205.51,248.01c4.77-5.67,14.79-0.14,18.53,5.25c-6.34,1.37-7.729,9.12-13.771,10.711
	c-4.039,1.969-11.47-5.15-5.619-7.301C208.32,255.77,206.58,250.52,205.51,248.01z"/>
<path fill="#919676" d="M228.99,250.71c-1.03-2.66,2.01-3.86,3.74-5.149C231.76,247.46,230.43,249.141,228.99,250.71z"/>
<path fill="#916553" d="M238.391,251.91c3.18-1.52,5.35-6.25,9.31-4.41c-0.101,0.71-0.31,2.13-0.421,2.84
	c-1.219,1.17-2.489,2.301-3.77,3.42C241.82,253.21,238.561,254.439,238.391,251.91z"/>
<path fill="#979773" d="M246.75,256.75c2.439-2.57,3.279-9.87,7.12-9.43c-2.7,3.72-4.81,7.81-6.5,12.08
	c-1.351,0.029-2.7,0.07-4.04,0.109l-0.02-0.67C244.67,258.46,246.41,258.46,246.75,256.75z"/>
<path fill="#BFB4A6" d="M205.109,270.32c-6.06-6.49-5.83-15.85,0.4-22.311c1.07,2.51,2.811,7.76-0.859,8.66
	c-5.851,2.15,1.58,9.27,5.619,7.301c6.041-1.591,7.431-9.341,13.771-10.711c3.94,3.84,5.33,9.66,9.2,13.37
	c0.1,10.351,6.9,20.14,17.81,18.49c4.271-6.66,11.83-2.87,17.81-1.899c4.32,1.829,1.82,6.209,0.931,9.049
	c4.351,2.42,6.7,5.34,4.61,11.311c-4.84,1.43-11.461,0.52-6.84-5.25c-4.44,5.13-9.221-0.35-14.521,0.52
	c-4.14,2.93-8.17-3.47-11.81-0.279c-4.681-4.641,3.229-5.061,4.379-9.021c-3.02-1.7-6.08-6.28-9.81-4.17
	c-3.94-3.29-8.579-3.521-10.64,1.79c-2.86,3.359,4.07,8.221-2.5,10.57c-4.439,2.13-9.48,0.619-14.18,1.65
	c-1.201-4.23,4.689-1.971,5.649-5.24c1.13-3.09,1.46-6.4,2.591-9.48c2.869,0.92,10.039,1.12,8.68-3.939
	C220.38,274.58,211.3,273.49,205.109,270.32z"/>
<path fill="#262410" d="M243.51,253.76c1.28-1.119,2.551-2.25,3.77-3.42c-0.309,2.12-0.489,4.26-0.529,6.41
	c-0.34,1.71-2.08,1.71-3.439,2.09C243.18,257.141,243.359,255.439,243.51,253.76z"/>
<path fill="#B8AD9F" d="M299.34,260.37c-0.83-7.56,5.311-0.56,9.24-0.931c3.65,1.451-3.41,6.23,0.87,7.11
	c5.21,3.57,10.52-4.569,15.33-0.36c-0.3,0.511-0.88,1.531-1.181,2.041l-0.489,0.84c-1.521,1.959-1.92,4.42-2.391,6.789
	c-0.229,4.381-7.779,4.561-6.21,9.48c5.13,1.11,11.11,6.75,16.061,2.21c2.76-2.71,4.56,2.57,7.64,2.07
	c-2.45-6.74,2.65-5.66,6.31-7.261c1.75-3.6-1.02-4.5-2.779-6.139c1.62-2.421,4.55-4.761,2.7-7.91c0.46,0.35,1.39,1.069,1.85,1.43
	c0.41,0.89,0.82,1.779,1.229,2.68c0.07,0.46,0.211,1.38,0.28,1.84c1.16,4.42-3.08,12.76,4.601,11.34c1.869,0.811,3.76,1.61,5.8,1.93
	c0.5,0.101,1.51,0.311,2.02,0.421c1.761,0.39,3.57,0.64,5.391,0.69c2.54,0.27,4.93-0.58,6.96-2.08
	c3.54-0.58,7.529-1.551,10.59,0.869c0.76,0.84,1.54,1.66,2.359,2.461c1.9,2.289,5.061,3.67,6.171,6.569
	c-1.61-0.31-3.181-0.75-4.74-1.2c-2.84-1.449-5.82-3.66-9.16-3.14c-7.26-4.53-11.25,2.601-17.38,4.42
	c-0.49-0.19-1.49-0.569-1.99-0.761c-0.95-6.17-7.27-5.76-12.11-5.819c-0.869,4.69,1.73,7.42,6.011,6.75
	c2.35,3.271-0.71,7.479-0.07,10.569c1.58,2.261-5.68,4.021-6.92,7.07c-4.73,2.98-7.99-2.369-12.75-1.989
	c3.1-3.811,5.24-8.271,5.65-13.2c-5.69,9.29-13.771-1.61-21.551-0.66c-2.71,2.6,0.74,8.33-3.01,10.02
	c-0.59-1.299-1.91-5.72-3.229-3.069c-3.021,5.08,6.779,2.97,6.01,7.89c-5.88,1.38-15.94,0.141-17.21,8.2
	c-1.59-1.59-3.43-3.72-5.87-2.3c-1.78-3.13-5.021-5.721-5.07-9.53c3.511,0.41,8.72,3.96,10.84-0.56
	c1.801-5.2,2.42-10.721,4.07-15.961c1.76-5.399,8.23-7.84,9.18-13.64c-1.479-1.81-3.27-0.46-4.739,0.56
	c-2.04,1.281-4.15,2.471-6.391,3.361c1.03-2.051,2.561-3.83,3.41-5.98c-7.21,0.26-14.311,6.56-15.62,13.77l-0.93-0.039
	c0.659-7.91,7.39-14.961,15.51-15.051c-4.04-3.279-7.97-6.72-11.12-10.88c-0.609-0.91-1.21-1.819-1.789-2.74
	C289.189,253.93,295.85,258.84,299.34,260.37z"/>
<path fill="#CAC8BC" d="M233.24,266.63c2.49-3.46,5.779-6.36,10.09-7.12c1.34-0.039,2.689-0.08,4.04-0.109
	c0.67,0.06,1.989,0.199,2.659,0.27c2.851,1.13,5.721,2.26,8.4,3.78c-2.32,4.31-3.64,12.36,0.09,15.829
	c3.69,0.531,7.311,1.73,10.34,3.941c-5.979-0.971-13.539-4.761-17.81,1.899C240.141,286.77,233.34,276.98,233.24,266.63z"/>
<path fill="#B1947E" d="M271.359,265.45c-0.709-5.37,6.98-5.55,10.381-4.9C279.4,264.04,275.01,264.221,271.359,265.45z"/>
<path fill="#6E4D2F" d="M281.74,260.55l0.81,0.021c3.54,2.229-1.04,4.88-0.05,7.63c-3.439,1.36-10.62,1.319-11.141-2.75
	C275.01,264.221,279.4,264.04,281.74,260.55z"/>
<path fill="#3B2A14" d="M282.55,260.57c2.771,0.42,5.47,1.18,8.171,1.979c0.579,0.921,1.18,1.83,1.789,2.74
	c-3.39,0.78-6.71,1.819-10.01,2.91C281.51,265.45,286.09,262.8,282.55,260.57z"/>
<path fill="#A6A591" d="M258.43,263.45c3.36,4.36,1.78,10.84,0.09,15.829C254.79,275.811,256.109,267.76,258.43,263.45z"/>
<path fill="#907C38" d="M326.17,266.57c2.41,1.32,4.71-0.44,7.08-0.971c1.11,1.551,2.04,3.23,3.09,4.83l0.42,0.98
	c-3.55,4.04-5.47-4.03-8.97-0.68c-2.49,1.899-2.13-1.98-4.19-2.5c0.301-0.51,0.881-1.53,1.181-2.041
	C325.12,266.29,325.82,266.471,326.17,266.57z"/>
<path fill="#A48E74" d="M323.6,268.23c2.061,0.52,1.7,4.399,4.19,2.5c3.5-3.351,5.42,4.72,8.97,0.68
	c4.13,6.26-5.39,11.42-10.3,9.199c-5.97-1.42,1.1-7.939-3.35-11.539L323.6,268.23z"/>
<path fill="#AAA08E" d="M336.34,270.43c2.601-1.02,5.391-1.39,8.101-2.119c1.85,3.149-1.08,5.489-2.7,7.91
	c1.76,1.639,4.529,2.539,2.779,6.139c-3.659,1.601-8.76,0.521-6.31,7.261c-3.08,0.5-4.88-4.78-7.64-2.07
	c-4.95,4.54-10.931-1.1-16.061-2.21c-1.569-4.92,5.98-5.1,6.21-9.48c0.471-2.369,0.87-4.83,2.391-6.789
	c4.449,3.6-2.62,10.119,3.35,11.539c4.91,2.221,14.43-2.939,10.3-9.199L336.34,270.43z"/>
<path fill="#C4C3B1" d="M205.109,270.32c6.19,3.17,15.271,4.26,20.291,10.41c1.359,5.06-5.811,4.859-8.68,3.939
	c-1.131,3.08-1.461,6.391-2.591,9.48c-0.96,3.27-6.851,1.01-5.649,5.24c4.699-1.031,9.74,0.479,14.18-1.65
	c-1.9,3.89-2.34,8.25-3.28,12.439c-0.89,4.99-6.159,6.061-10.56,6.11c-2.551-3.05-7.1-3.3-10.33-5.53
	c-0.711-2.449-2.48-4.34-3.65-6.539c-0.369-3.101,3.551-6.961,0.48-9.511c-2.2-2.79-9.07,1.11-7.78-3.96
	c9.22,1,15.979-6.01,24.31-8.189c-8.76-1.24-16.959,4.17-25.57,3.31c8.211-3.64,17.381-4.149,26.221-4.45
	c-2.3-3.449-4.779-6.75-6.93-10.29L205.109,270.32z"/>
<path fill="#837968" d="M347.8,274.26c1.28,3.9,4.42,7.11,4.601,11.34C344.72,287.02,348.96,278.68,347.8,274.26z"/>
<path fill="#A29987" d="M289.05,291.26c1.31-7.21,8.41-13.51,15.62-13.77c-0.85,2.15-2.38,3.93-3.41,5.98
	c2.24-0.891,4.351-2.08,6.391-3.361c2.26,3.301-3.381,4.761-5.061,6.49c-7.76,3.49-3.41,13.23-5.22,19.66
	c-2.22,2.6-5.74,2.44-8.53,0.95C289.26,301.891,287.99,296.52,289.05,291.26z"/>
<path fill="#ACA693" d="M307.65,280.109c1.47-1.02,3.26-2.369,4.739-0.56c-0.949,5.8-7.42,8.24-9.18,13.64
	c-1.65,5.24-2.27,10.761-4.07,15.961c-2.12,4.52-7.329,0.97-10.84,0.56c0.05,3.81,3.29,6.4,5.07,9.53
	c-0.21,1.319-0.37,2.67-0.42,4.02c-2.69,1.2-3.39,4.19-5.19,6.25c-2.35-7.56-12.06-12.8-19.91-10.35
	c-3.479-3.76-9.07-6.24-9.75-11.801c6.811-2.879,13.84,0.711,20.631,0.521c3.09,0.38,5.97,1.59,8.93,2.48
	c-0.23-6.39-2.16-12.94,0.46-19.14l0.93,0.039c-1.06,5.26,0.21,10.631-0.21,15.95c2.79,1.49,6.311,1.649,8.53-0.95
	c1.81-6.43-2.54-16.17,5.22-19.66C304.27,284.87,309.91,283.41,307.65,280.109z"/>
<path fill="#5F231C" d="M366.52,281.71c2.221-0.56,4.461-1.021,6.75-1.22c0.36,0.289,1.091,0.869,1.45,1.17
	c-0.229,1.83-0.51,3.77-2.149,4.9c-2.03,1.5-4.42,2.35-6.96,2.08C365.94,286.33,366.24,284.02,366.52,281.71z"/>
<path fill="#ADB496" d="M186.279,285.87c8.611,0.86,16.811-4.55,25.57-3.31c-8.33,2.18-15.09,9.189-24.31,8.189
	c-1.29,5.07,5.58,1.17,7.78,3.96c3.07,2.55-0.85,6.41-0.48,9.511c1.17,2.199,2.939,4.09,3.65,6.539
	c-6.04-2.119-13.32-5.76-15.16-12.35l-0.061-0.811C183.21,293.54,181.34,287.65,186.279,285.87z"/>
<path fill="#92802F" d="M225.16,287.17c2.061-5.311,6.699-5.08,10.64-1.79C233.73,288.971,227.8,291.51,225.16,287.17z"/>
<path fill="#ADA28E" d="M235.8,285.38c3.729-2.11,6.79,2.47,9.81,4.17c-1.149,3.96-9.06,4.38-4.379,9.021l0.51,0.9
	c-8.82,1.459-12.77,9.34-20.86,12.909c-0.37-0.55-1.13-1.649-1.5-2.2c0.94-4.189,1.38-8.55,3.28-12.439
	c6.57-2.35-0.36-7.211,2.5-10.57C227.8,291.51,233.73,288.971,235.8,285.38z"/>
<path fill="#2E2A0D" d="M358.2,287.529c2.37-1.209,4.77-2.449,7.37-3.119c0.38,2.96-3.431,2.72-5.351,3.54
	C359.71,287.84,358.7,287.63,358.2,287.529z"/>
<path fill="#AD9585" d="M346.31,289.96c4.841,0.06,11.16-0.351,12.11,5.819c-3.939-0.51-10.67-5.729-6.1,0.931
	C348.04,297.38,345.44,294.65,346.31,289.96z"/>
<path fill="#E9CCCB" d="M359.47,289.46c2.59,0.08,5.261,1.56,7.181,3.12C364.35,293.21,358.82,293.3,359.47,289.46z"/>
<path fill="#A08076" d="M360.41,296.54c6.13-1.819,10.12-8.95,17.38-4.42c-6.1-0.46-6.32,4.61-8.13,8.409
	c-0.83-0.879-1.65-1.859-2.92-2.039C364.62,297.82,362.51,297.17,360.41,296.54z"/>
<path fill="#816159" d="M377.79,292.12c3.34-0.521,6.32,1.69,9.16,3.14c-4.69,1.57-4.91,7.881-9.75,9.19
	c-1.3-0.351-2.62-0.62-3.931-0.86c-1.34-0.859-2.64-1.79-3.609-3.061C371.47,296.73,371.69,291.66,377.79,292.12z"/>
<path fill="#C7C3B1" d="M241.23,298.57c3.64-3.19,7.67,3.209,11.81,0.279c5.3-0.869,10.08,4.61,14.521-0.52
	c-4.621,5.77,2,6.68,6.84,5.25c-0.541,2.9,2.16,3.561,4.33,4.3c-6.791,0.19-13.82-3.399-20.631-0.521c-4.43,4.94-16.72-1-14.6,8.171
	c2.27,10.55-11.029,14.71-19.029,15.02c-1.891-1.21-3.971-0.49-5.9,0.181c-3.5-1.181-6.471-3.57-10.07-4.57
	c3.4-3.69,7.25-8.15,12.67-8.28c6.07-3.729,12.23-7.64,19.17-9.61c4.051-0.569,2.65-6.14,1.4-8.799L241.23,298.57z"/>
<path fill="#A89C8A" d="M316.68,298.5c7.78-0.95,15.86,9.95,21.551,0.66c-0.41,4.93-2.551,9.39-5.65,13.2
	c4.76-0.38,8.02,4.97,12.75,1.989c-2.521,1.99-6.38,2.23-8.26,4.99c-5.92-3.149-4.261,5.09,0.01,5.351
	c1.41,0.29,4.229,0.869,5.64,1.159c-6.859,4.141-13.96,10.87-13.22,19.67c0.16,2.961-1.53,5.58-3.94,7.16
	c3.011-9.85-4.989-17.84-12.06-23.34c-1.7-4.21-6.89-2.2-8.46-6.45c-1.13-2.649-2.96-0.42-4.28,0.761
	c-0.38-0.53-1.14-1.58-1.52-2.11c1.27-8.06,11.33-6.82,17.21-8.2c0.77-4.92-9.03-2.81-6.01-7.89c1.319-2.65,2.64,1.771,3.229,3.069
	C317.42,306.83,313.97,301.1,316.68,298.5z"/>
<path fill="#3D3921" d="M366.74,298.49c1.27,0.18,2.09,1.16,2.92,2.039c-3.12,0.691-5.4,3.121-7.53,5.33
	c-0.899,0.111-1.79,0.17-2.68,0.16C361.76,303.391,364.29,300.98,366.74,298.49z"/>
<path fill="#B7B69E" d="M241.74,299.471c1.25,2.659,2.65,8.229-1.4,8.799c-6.939,1.971-13.1,5.881-19.17,9.61
	c-5.42,0.13-9.27,4.59-12.67,8.28c3.6,1,6.57,3.39,10.07,4.57c-5.01,1.17-11.08,2.72-15.61-0.62c0.22-5.21-4.21-8.2-8.42-9.841
	c-0.319-0.25-0.97-0.729-1.3-0.979c4.039-4.46,10.17-3.98,15.58-3c4.4-0.05,9.67-1.12,10.56-6.11c0.37,0.551,1.13,1.65,1.5,2.2
	C228.971,308.811,232.92,300.93,241.74,299.471z"/>
<path fill="#221C0D" d="M387.54,308.25c-2.11-2.971-4.68-8.13,0.979-4.73c1.521,1.69,3.29,3.391,5.561,3.98
	c-0.17-3.4,6.75-4.891,6.42-0.59v3.5c-4.34,0.55-8.78,0.52-13.04,1.56c-2.7,0.721-5.31,1.78-7.77,3.08
	c-0.54-0.14-1.61-0.439-2.141-0.58c-0.24-0.38-0.71-1.14-0.95-1.529c1.57-3.341-2.59-6.15-3.33-9.351
	c1.311,0.24,2.631,0.51,3.931,0.86C378.44,309.4,383.38,310.56,387.54,308.25z"/>
<path fill="#988C79" d="M352.25,307.279c2.33-0.719,4.87-2.899,7.2-1.26c0.89,0.01,1.78-0.049,2.68-0.16
	c5.87,0.19,11.62,1.561,14.47,7.081c0.24,0.39,0.71,1.149,0.95,1.529c-1.35,3.641-1.25,9.38-5.74,10.8
	c-8.14,1.091-15.06-7.029-23.27-3.569c-0.16,4.859,5.43,8.689,10.13,7.99c-0.51,0.279-1.54,0.84-2.06,1.109
	c-3.07,0.771-6.32,0.05-9.391-0.069c3.13,5.64,9.61,11.409,8.75,18.18c-4.569,1.84-3.819,7.55,1.521,6.899
	c-4.3,2.96-7.23,8.061-7.83,13.86c-4.141-0.15-8.25-0.01-12.351,0.34c-6.67,0.21-13.13-1.56-19.54-3.12
	c-3.75-4.479-7.72-10.75-14.52-9.83c-0.57-0.3-1.08-0.68-1.52-1.13c-0.36-2.79-0.961-5.58-2.391-8.029
	c4.93-0.49,10.36-6.7,14.26-1.49c2.561,1.62,7.53,3.45,9.721,1.82c-0.36-7.28-7.301-12.33-9.82-18.891
	c7.07,5.5,15.07,13.49,12.06,23.34c2.41-1.58,4.101-4.199,3.94-7.16c-0.74-8.8,6.36-15.529,13.22-19.67
	c-1.41-0.29-4.229-0.869-5.64-1.159c2.189-1.7,1.92-3.57-0.01-5.351c1.88-2.76,5.739-3,8.26-4.99
	C346.57,311.3,353.83,309.54,352.25,307.279z"/>
<path fill="#B6B39E" d="M243.5,315.53c-2.12-9.171,10.17-3.23,14.6-8.171c0.68,5.561,6.271,8.041,9.75,11.801
	c7.851-2.45,17.561,2.79,19.91,10.35c-3.289,4-9.09,2.59-13.47,2.26c-5.319-0.1-9.83-3.22-14.91-4.3
	c-3.989-0.92-10.14,0.16-10.88,5.03c-0.38,5.16-7.65,3.21-9.029,7.96c1.739,3.23,4.01,6.38,3.939,10.24
	c-4.86-3.101-8.75-7.351-11.67-12.33c-1.7-3.25-3.2-7.15-7.27-7.82C232.471,330.24,245.77,326.08,243.5,315.53z"/>
<path fill="#70843E" d="M247.359,317.51c3.211-0.899,5.021,0.88,5.261,4.01C250.79,320.31,248.529,319.44,247.359,317.51z"/>
<path fill="#896E22" d="M293.37,319.24c2.44-1.42,4.28,0.71,5.87,2.3c0.38,0.53,1.14,1.58,1.52,2.11
	c-1.729,2.21-7.26,5.02-7.67,0.56l-0.14-0.95C293,321.91,293.16,320.56,293.37,319.24z"/>
<path fill="#847127" d="M337.08,324.69c-4.271-0.261-5.93-8.5-0.01-5.351C339,321.12,339.27,322.99,337.08,324.69z"/>
<path fill="#A8988C" d="M348.54,321.7c8.21-3.46,15.13,4.66,23.27,3.569c-2.579,1.431-5.329,2.521-8.189,3.24
	c-1.67,0.32-3.32,0.71-4.95,1.181C353.97,330.39,348.38,326.56,348.54,321.7z"/>
<path fill="#8D826E" d="M300.76,323.65c1.32-1.181,3.15-3.41,4.28-0.761c1.57,4.25,6.76,2.24,8.46,6.45
	c2.52,6.561,9.46,11.61,9.82,18.891c-2.19,1.63-7.16-0.2-9.721-1.82c-3.899-5.21-9.33,1-14.26,1.49
	c-2.34-5.051-2.779-11.051-7.26-14.95c-3.25-2.53,0.22-5.88,1.01-8.74C293.5,328.67,299.03,325.86,300.76,323.65z"/>
<path fill="#A29A85" d="M287.76,329.51c1.801-2.06,2.5-5.05,5.19-6.25l0.14,0.95c-0.79,2.86-4.26,6.21-1.01,8.74
	c4.48,3.899,4.92,9.899,7.26,14.95c1.43,2.449,2.03,5.239,2.391,8.029c-1.95-1.46-5.07-7.85-3.62,1.15
	c-1.8,4.38-8.601,3.189-10.171-0.99c-2.51-6.06-13.799-2.71-13.5-10.54c-3.16-5.56,11.57-14.85-0.149-13.78
	C278.67,332.1,284.471,333.51,287.76,329.51z"/>
<path fill="#C5C7B2" d="M248.5,332.5c0.74-4.87,6.891-5.95,10.88-5.03c5.011,5.05,9.229,14.25,3.06,19.96
	c-4.16,6.721-12.83,7.641-19.029,3.271c0.07-3.86-2.2-7.01-3.939-10.24C240.85,335.71,248.12,337.66,248.5,332.5z"/>
<path fill="#1F1C0D" d="M358.67,329.69c1.63-0.471,3.28-0.86,4.95-1.181c-2.07,2.351-4.101,4.721-6.08,7.141
	c-0.28-1.631-0.6-3.24-0.93-4.851C357.13,330.53,358.16,329.97,358.67,329.69z"/>
<path fill="#848162" d="M347.22,330.73c3.07,0.119,6.32,0.84,9.391,0.069c0.33,1.61,0.649,3.22,0.93,4.851
	c2.87,7.84,1.37,16.06,1.21,24.189c-1.02,4.46-3.63,8.37-8.05,9.9l-1.04-0.07c0.6-5.8,3.53-10.9,7.83-13.86
	c-5.34,0.65-6.09-5.06-1.521-6.899C356.83,342.14,350.35,336.37,347.22,330.73z"/>
<path fill="#A5A18B" d="M303.25,357.06c6.8-0.92,10.77,5.351,14.52,9.83c6.41,1.561,12.87,3.33,19.54,3.12
	c1.101,0.931,2.44,1.86,2.23,3.521c-7.63,0.899-15.3-0.771-22.43-3.34c-5.32,3.359-4.29-5.08-8.48-3.65
	c-6.479,2.26-10.729,8.13-15.26,12.96c-3.64,1.87-7.8,3.92-6.2,9.19l-0.811-0.21c-1.049-2.78-0.859-5.82-0.819-8.721
	c2.101-1.96,4.14-3.97,6.04-6.12c4.359-5.01,8.729-10.21,14.54-13.569C306.98,358.22,304.21,358.03,303.25,357.06z"/>
<path fill="#766829" d="M321.85,357.9c5.44-0.431-0.71,4.439-3.479,2.88C313.95,360.02,320.42,358.71,321.85,357.9z"/>
<path fill="#AFAD9A" d="M293.37,379.5c4.53-4.83,8.78-10.7,15.26-12.96c4.19-1.43,3.16,7.01,8.48,3.65
	c7.13,2.569,14.8,4.239,22.43,3.34c1.49,7.43-2.45,13.979-5.73,20.25c0.03-5.08,0.841-10.13,0.65-15.2
	c-4.29,0.11-9.09,2.34-12.35-1.62c-4.101-4.26-11.38,1.14-13.931-5.28C302.37,371.43,299.46,379.17,293.37,379.5z"/>
<path fill="#B8B8A8" d="M293.37,379.5c6.09-0.33,9-8.07,14.81-7.82c2.551,6.42,9.83,1.021,13.931,5.28
	c3.26,3.96,8.06,1.73,12.35,1.62c0.19,5.07-0.62,10.12-0.65,15.2c-3.399,8.93-12.149-0.96-13.26-6.271
	c-1.29-2.96-2.2-8.33-4.22-3.16c-2.73,4.45-6.92,7.601-10.22,11.561c-2.49,0.16-4.94,0.57-7.41,0.51
	c-3.62-2.9-7.32-5.74-11.53-7.729C285.57,383.42,289.73,381.37,293.37,379.5z"/>
</svg>
